<svg viewBox="0 0 14 14" fill="none" xmlns="http://www.w3.org/2000/svg">
<path d="M7 1.71875C4.088 1.71875 1.71875 4.088 1.71875 7C1.71875 9.912 4.088 12.2812 7 12.2812C9.912 12.2812 12.2812 9.912 12.2812 7C12.2812 4.088 9.912 1.71875 7 1.71875ZM8.91208 8.33792C8.952 8.37511 8.98401 8.41996 9.00622 8.46979C9.02842 8.51963 9.04036 8.57342 9.04132 8.62797C9.04228 8.68251 9.03225 8.7367 9.01182 8.78728C8.99138 8.83787 8.96097 8.88382 8.9224 8.9224C8.88382 8.96097 8.83787 8.99138 8.78728 9.01182C8.7367 9.03225 8.68251 9.04228 8.62797 9.04132C8.57342 9.04036 8.51963 9.02842 8.46979 9.00622C8.41996 8.98401 8.37511 8.952 8.33792 8.91208L7 7.57417L5.66208 8.91208C5.58507 8.98384 5.48321 9.02291 5.37797 9.02105C5.27272 9.0192 5.1723 8.97656 5.09787 8.90213C5.02344 8.8277 4.9808 8.72728 4.97895 8.62203C4.97709 8.51679 5.01616 8.41493 5.08792 8.33792L6.42583 7L5.08792 5.66208C5.01616 5.58507 4.97709 5.48321 4.97895 5.37797C4.9808 5.27272 5.02344 5.1723 5.09787 5.09787C5.1723 5.02344 5.27272 4.9808 5.37797 4.97895C5.48321 4.97709 5.58507 5.01616 5.66208 5.08792L7 6.42583L8.33792 5.08792C8.41493 5.01616 8.51679 4.97709 8.62203 4.97895C8.72728 4.9808 8.8277 5.02344 8.90213 5.09787C8.97656 5.1723 9.0192 5.27272 9.02105 5.37797C9.02291 5.48321 8.98384 5.58507 8.91208 5.66208L7.57417 7L8.91208 8.33792Z" fill="#FF3C5F"/>
</svg>
