<svg viewBox="0 0 20 20" xmlns="http://www.w3.org/2000/svg"><path d="m16.66668 15v-1.6667c0-1.5532-1.0623-2.8582-2.5-3.2283m-2.9167-9.8627c1.2216.49449 2.0833 1.69213 2.0833 3.09103 0 1.39891-.8617 2.59655-2.0833 3.09104m1.25 8.57563c0-1.5531 0-2.3297-.2537-2.9423-.3383-.8167-.9872-1.4657-1.804-1.804-.6126-.2537-1.3891-.2537-2.94228-.2537h-2.5c-1.55314 0-2.32971 0-2.94228.2537-.81676.3383-1.46568.9873-1.80399 1.804-.25373.6126-.25373 1.3892-.25373 2.9423m9.58328-11.66667c0 1.84095-1.4923 3.33334-3.33328 3.33334-1.84095 0-3.33334-1.49239-3.33334-3.33334s1.49239-3.33333 3.33334-3.33333c1.84098 0 3.33328 1.49238 3.33328 3.33333z" fill="none" stroke="#1a1a1a" stroke-linecap="round" stroke-linejoin="round" stroke-width="1.5" transform="translate(1.66 2.5)"/></svg>