<svg viewBox="0 0 32 32" fill="none" xmlns="http://www.w3.org/2000/svg">
<path d="M43.0924 0H-14.8536C-14.9345 0 -15 0.0655333 -15 0.146373V31.8536C-15 31.9345 -14.9345 32 -14.8536 32H43.0924C43.1732 32 43.2388 31.9345 43.2388 31.8536V0.146373C43.2388 0.0655333 43.1732 0 43.0924 0Z" fill="#00ABC2"/>
<path d="M16.4648 18.2556C18.628 18.2556 20.3817 16.5019 20.3817 14.3387C20.3817 12.1754 18.628 10.4217 16.4648 10.4217C14.3015 10.4217 12.5479 12.1754 12.5479 14.3387C12.5479 16.5019 14.3015 18.2556 16.4648 18.2556Z" fill="#FFEC2D"/>
<path d="M16.3299 9.82454C16.4031 9.85967 16.5231 9.85967 16.5963 9.82454C16.5963 9.82454 16.7837 9.73671 16.7837 9.56399C16.7837 9.3298 16.5027 8.36081 16.5027 8.36081C16.4792 8.2847 16.4441 8.2847 16.4207 8.36081C16.4207 8.36081 16.1396 9.3298 16.1396 9.56399C16.1396 9.73964 16.327 9.82454 16.327 9.82454H16.3299Z" fill="#FFEC2D"/>
<path d="M20.979 14.204C20.9439 14.2772 20.9439 14.3972 20.979 14.4704C20.979 14.4704 21.0668 14.6578 21.2395 14.6578C21.4737 14.6578 22.4427 14.3767 22.4427 14.3767C22.5188 14.3533 22.5188 14.3182 22.4427 14.2948C22.4427 14.2948 21.4737 14.0137 21.2395 14.0137C21.0639 14.0137 20.979 14.2011 20.979 14.2011V14.204Z" fill="#FFEC2D"/>
<path d="M16.5963 18.8528C16.5231 18.8177 16.4031 18.8177 16.3299 18.8528C16.3299 18.8528 16.1426 18.9406 16.1426 19.1134C16.1426 19.3475 16.4236 20.3165 16.4236 20.3165C16.447 20.3926 16.4822 20.3926 16.5056 20.3165C16.5056 20.3165 16.7866 19.3475 16.7866 19.1134C16.7866 18.9377 16.5993 18.8528 16.5993 18.8528H16.5963Z" fill="#FFEC2D"/>
<path d="M11.9505 14.4704C11.9856 14.3972 11.9856 14.2772 11.9505 14.204C11.9505 14.204 11.8627 14.0166 11.69 14.0166C11.4558 14.0166 10.4868 14.2977 10.4868 14.2977C10.4107 14.3211 10.4107 14.3562 10.4868 14.3797C10.4868 14.3797 11.4558 14.6607 11.69 14.6607C11.8656 14.6607 11.9505 14.4733 11.9505 14.4733V14.4704Z" fill="#FFEC2D"/>
<path d="M18.0685 10.1173C18.1241 10.1758 18.2324 10.2227 18.3144 10.2198C18.3144 10.2198 18.5223 10.211 18.5867 10.05C18.6745 9.83333 18.7887 8.83214 18.7887 8.83214C18.7974 8.7531 18.7652 8.73846 18.7125 8.79994C18.7125 8.79994 18.0831 9.58742 17.9953 9.80405C17.928 9.96506 18.0685 10.1173 18.0685 10.1173Z" fill="#FFEC2D"/>
<path d="M20.6861 15.9429C20.6275 15.9985 20.5807 16.1069 20.5836 16.1888C20.5836 16.1888 20.5924 16.3967 20.7534 16.4611C20.97 16.5489 21.9712 16.6631 21.9712 16.6631C22.0503 16.6719 22.0649 16.6397 22.0034 16.587C22.0034 16.587 21.216 15.9576 20.9993 15.8697C20.8383 15.8024 20.6861 15.9429 20.6861 15.9429Z" fill="#FFEC2D"/>
<path d="M14.8603 18.5601C14.8046 18.5015 14.6963 18.4547 14.6144 18.4576C14.6144 18.4576 14.4065 18.4664 14.3421 18.6274C14.2543 18.844 14.1401 19.8452 14.1401 19.8452C14.1313 19.9243 14.1635 19.9389 14.2162 19.8774C14.2162 19.8774 14.8456 19.0899 14.9334 18.8733C15.0008 18.7123 14.8603 18.5601 14.8603 18.5601Z" fill="#FFEC2D"/>
<path d="M12.2431 12.7344C12.3016 12.6788 12.3485 12.5705 12.3456 12.4885C12.3456 12.4885 12.3368 12.2807 12.1758 12.2163C11.9591 12.1285 10.9579 12.0143 10.9579 12.0143C10.8789 12.0055 10.8643 12.0377 10.9257 12.0904C10.9257 12.0904 11.7132 12.7198 11.9299 12.8076C12.0909 12.875 12.2431 12.7344 12.2431 12.7344Z" fill="#FFEC2D"/>
<path d="M19.562 11.0511C19.5883 11.1273 19.6732 11.2122 19.7493 11.2385C19.7493 11.2385 19.9425 11.3088 20.0655 11.1858C20.2294 11.0219 20.7183 10.1378 20.7183 10.1378C20.7564 10.0675 20.73 10.0412 20.6598 10.0792C20.6598 10.0792 19.7757 10.5652 19.6117 10.7321C19.4888 10.855 19.559 11.0482 19.559 11.0482L19.562 11.0511Z" fill="#FFEC2D"/>
<path d="M19.7493 17.4359C19.6732 17.4623 19.5883 17.5472 19.562 17.6233C19.562 17.6233 19.4917 17.8165 19.6147 17.9394C19.7786 18.1034 20.6627 18.5923 20.6627 18.5923C20.733 18.6303 20.7593 18.604 20.7212 18.5337C20.7212 18.5337 20.2353 17.6496 20.0684 17.4857C19.9455 17.3627 19.7523 17.433 19.7523 17.433L19.7493 17.4359Z" fill="#FFEC2D"/>
<path d="M13.3647 17.6233C13.3384 17.5472 13.2535 17.4623 13.1773 17.4359C13.1773 17.4359 12.9841 17.3657 12.8612 17.4886C12.6972 17.6526 12.2084 18.5366 12.2084 18.5366C12.1703 18.6069 12.1966 18.6333 12.2669 18.5952C12.2669 18.5952 13.151 18.1092 13.3149 17.9424C13.4379 17.8194 13.3676 17.6262 13.3676 17.6262L13.3647 17.6233Z" fill="#FFEC2D"/>
<path d="M13.1773 11.2414C13.2535 11.2151 13.3383 11.1302 13.3647 11.0541C13.3647 11.0541 13.435 10.8609 13.312 10.7379C13.1481 10.574 12.264 10.0851 12.264 10.0851C12.1937 10.047 12.1674 10.0734 12.2054 10.1436C12.2054 10.1436 12.6914 11.0277 12.8582 11.1917C12.9812 11.3146 13.1744 11.2444 13.1744 11.2444L13.1773 11.2414Z" fill="#FFEC2D"/>
<path d="M20.5831 12.4885C20.5802 12.5676 20.6241 12.6788 20.6856 12.7344C20.6856 12.7344 20.8378 12.875 20.9988 12.8076C21.2155 12.7198 22.003 12.0904 22.003 12.0904C22.0644 12.0406 22.0527 12.0055 21.9708 12.0143C21.9708 12.0143 20.9696 12.1255 20.7529 12.2163C20.5919 12.2836 20.5831 12.4885 20.5831 12.4885Z" fill="#FFEC2D"/>
<path d="M18.3144 18.4576C18.2354 18.4547 18.1241 18.4986 18.0685 18.5601C18.0685 18.5601 17.928 18.7123 17.9953 18.8733C18.0831 19.0899 18.7125 19.8774 18.7125 19.8774C18.7623 19.9389 18.7974 19.9272 18.7887 19.8452C18.7887 19.8452 18.6774 18.844 18.5867 18.6274C18.5193 18.4664 18.3144 18.4576 18.3144 18.4576Z" fill="#FFEC2D"/>
<path d="M12.3426 16.1888C12.3455 16.1098 12.3016 15.9985 12.2401 15.9429C12.2401 15.9429 12.0879 15.8024 11.9269 15.8697C11.7102 15.9576 10.9227 16.587 10.9227 16.587C10.8613 16.6367 10.873 16.6719 10.9549 16.6631C10.9549 16.6631 11.9561 16.5518 12.1728 16.4611C12.3338 16.3937 12.3426 16.1888 12.3426 16.1888Z" fill="#FFEC2D"/>
<path d="M14.6143 10.2198C14.6933 10.2227 14.8046 10.1788 14.8602 10.1173C14.8602 10.1173 15.0007 9.96506 14.9334 9.80405C14.8455 9.58742 14.2161 8.79994 14.2161 8.79994C14.1664 8.73846 14.1312 8.75017 14.14 8.83214C14.14 8.83214 14.2513 9.83333 14.342 10.05C14.4093 10.211 14.6143 10.2198 14.6143 10.2198Z" fill="#FFEC2D"/>
<path d="M17.2147 9.88602C17.2791 9.93285 17.3962 9.95627 17.4753 9.93871C17.4753 9.93871 17.6773 9.88894 17.7095 9.71915C17.7563 9.49081 17.6685 8.48669 17.6685 8.48669C17.6626 8.40765 17.6246 8.39887 17.5894 8.47206C17.5894 8.47206 17.1269 9.36786 17.0801 9.5962C17.0449 9.76892 17.2118 9.88894 17.2118 9.88894L17.2147 9.88602Z" fill="#FFEC2D"/>
<path d="M20.9179 15.0881C20.8711 15.1525 20.8476 15.2696 20.8652 15.3486C20.8652 15.3486 20.915 15.5506 21.0848 15.5828C21.3131 15.6297 22.3172 15.5419 22.3172 15.5419C22.3963 15.536 22.405 15.4979 22.3319 15.4628C22.3319 15.4628 21.4361 15.0003 21.2077 14.9534C21.035 14.9183 20.915 15.0852 20.915 15.0852L20.9179 15.0881Z" fill="#FFEC2D"/>
<path d="M15.7126 18.7913C15.6482 18.7445 15.5311 18.7211 15.452 18.7386C15.452 18.7386 15.2501 18.7884 15.2179 18.9582C15.171 19.1865 15.2588 20.1907 15.2588 20.1907C15.2647 20.2697 15.3027 20.2785 15.3379 20.2053C15.3379 20.2053 15.8004 19.3095 15.8473 19.0811C15.8824 18.9084 15.7155 18.7884 15.7155 18.7884L15.7126 18.7913Z" fill="#FFEC2D"/>
<path d="M12.0124 13.5863C12.0592 13.5219 12.0827 13.4048 12.0651 13.3258C12.0651 13.3258 12.0153 13.1238 11.8455 13.0916C11.6172 13.0447 10.6131 13.1326 10.6131 13.1326C10.534 13.1384 10.5253 13.1765 10.5984 13.2116C10.5984 13.2116 11.4942 13.6741 11.7226 13.721C11.8953 13.7561 12.0153 13.5892 12.0153 13.5892L12.0124 13.5863Z" fill="#FFEC2D"/>
<path d="M18.8624 10.5125C18.9033 10.5798 19.0029 10.6471 19.0819 10.6589C19.0819 10.6589 19.2868 10.6911 19.3834 10.5447C19.5122 10.3515 19.8196 9.39127 19.8196 9.39127C19.8431 9.31515 19.8138 9.29466 19.7523 9.34736C19.7523 9.34736 18.9824 9.99725 18.8506 10.1905C18.754 10.3368 18.8624 10.5125 18.8624 10.5125Z" fill="#FFEC2D"/>
<path d="M20.291 16.7363C20.2236 16.7772 20.1563 16.8768 20.1446 16.9558C20.1446 16.9558 20.1124 17.1607 20.2588 17.2573C20.452 17.3862 21.4122 17.6935 21.4122 17.6935C21.4883 17.717 21.5088 17.6877 21.4561 17.6262C21.4561 17.6262 20.8062 16.8563 20.613 16.7245C20.4666 16.6279 20.291 16.7363 20.291 16.7363Z" fill="#FFEC2D"/>
<path d="M14.0674 18.1649C14.0264 18.0975 13.9269 18.0302 13.8478 18.0185C13.8478 18.0185 13.6429 17.9863 13.5463 18.1326C13.4175 18.3259 13.1101 19.2861 13.1101 19.2861C13.0867 19.3622 13.116 19.3827 13.1774 19.33C13.1774 19.33 13.9474 18.6801 14.0791 18.4869C14.1757 18.3405 14.0674 18.1649 14.0674 18.1649Z" fill="#FFEC2D"/>
<path d="M12.6359 11.9411C12.7032 11.9001 12.7705 11.8006 12.7822 11.7215C12.7822 11.7215 12.8144 11.5166 12.6681 11.42C12.4749 11.2912 11.5147 10.9838 11.5147 10.9838C11.4385 10.9604 11.418 10.9897 11.4707 11.0511C11.4707 11.0511 12.1206 11.8211 12.3138 11.9528C12.4602 12.0494 12.6359 11.9411 12.6359 11.9411Z" fill="#FFEC2D"/>
<path d="M20.1446 11.7186C20.1563 11.7976 20.2236 11.8972 20.291 11.9381C20.291 11.9381 20.4666 12.0465 20.613 11.9499C20.8062 11.8211 21.4561 11.0482 21.4561 11.0482C21.5088 10.9867 21.4883 10.9575 21.4122 10.9809C21.4122 10.9809 20.452 11.2853 20.2588 11.4171C20.1124 11.5137 20.1446 11.7186 20.1446 11.7186Z" fill="#FFEC2D"/>
<path d="M19.0819 18.0185C19.0029 18.0302 18.9033 18.0975 18.8624 18.1649C18.8624 18.1649 18.754 18.3405 18.8506 18.4869C18.9795 18.6801 19.7523 19.33 19.7523 19.33C19.8138 19.3827 19.8431 19.3622 19.8196 19.2861C19.8196 19.2861 19.5152 18.3259 19.3834 18.1326C19.2868 17.9863 19.0819 18.0185 19.0819 18.0185Z" fill="#FFEC2D"/>
<path d="M12.7852 16.9558C12.7735 16.8768 12.7061 16.7772 12.6388 16.7363C12.6388 16.7363 12.4631 16.6279 12.3168 16.7245C12.1236 16.8534 11.4737 17.6262 11.4737 17.6262C11.421 17.6877 11.4415 17.717 11.5176 17.6935C11.5176 17.6935 12.4778 17.3891 12.671 17.2573C12.8174 17.1607 12.7852 16.9558 12.7852 16.9558Z" fill="#FFEC2D"/>
<path d="M13.8449 10.6589C13.9239 10.6471 14.0235 10.5798 14.0644 10.5125C14.0644 10.5125 14.1728 10.3368 14.0762 10.1905C13.9473 9.99725 13.1745 9.34736 13.1745 9.34736C13.113 9.29466 13.0837 9.31515 13.1072 9.39127C13.1072 9.39127 13.4116 10.3515 13.5434 10.5447C13.64 10.6911 13.8449 10.6589 13.8449 10.6589Z" fill="#FFEC2D"/>
<path d="M20.8646 13.3287C20.847 13.4077 20.8675 13.5248 20.9173 13.5892C20.9173 13.5892 21.0402 13.7561 21.21 13.721C21.4384 13.6741 22.3342 13.2116 22.3342 13.2116C22.4044 13.1735 22.3986 13.1384 22.3195 13.1326C22.3195 13.1326 21.3154 13.0477 21.0871 13.0916C20.9144 13.1267 20.8675 13.3258 20.8675 13.3258L20.8646 13.3287Z" fill="#FFEC2D"/>
<path d="M17.4748 18.7386C17.3957 18.7211 17.2786 18.7416 17.2142 18.7913C17.2142 18.7913 17.0474 18.9143 17.0825 19.0841C17.1293 19.3124 17.5919 20.2082 17.5919 20.2082C17.6299 20.2785 17.6651 20.2726 17.6709 20.1936C17.6709 20.1936 17.7558 19.1895 17.7119 18.9611C17.6768 18.7884 17.4777 18.7416 17.4777 18.7416L17.4748 18.7386Z" fill="#FFEC2D"/>
<path d="M12.062 15.3486C12.0795 15.2696 12.059 15.1525 12.0093 15.0881C12.0093 15.0881 11.8863 14.9212 11.7165 14.9564C11.4882 15.0032 10.5924 15.4657 10.5924 15.4657C10.5221 15.5038 10.528 15.5389 10.607 15.5448C10.607 15.5448 11.6111 15.6297 11.8395 15.5858C12.0122 15.5506 12.059 15.3516 12.059 15.3516L12.062 15.3486Z" fill="#FFEC2D"/>
<path d="M15.4519 9.93578C15.5309 9.95335 15.648 9.93285 15.7124 9.88309C15.7124 9.88309 15.8793 9.76013 15.8442 9.59034C15.7973 9.362 15.3348 8.4662 15.3348 8.4662C15.2967 8.39594 15.2616 8.4018 15.2557 8.48084C15.2557 8.48084 15.1708 9.48495 15.2148 9.71329C15.2499 9.88601 15.449 9.93285 15.449 9.93285L15.4519 9.93578Z" fill="#FFEC2D"/>
<path d="M15.7651 22.8254C15.7651 22.8254 15.7182 22.8283 15.6626 22.8341C15.607 22.84 15.3992 22.8898 15.326 22.9103C15.2528 22.9278 15.0449 22.9688 15.0303 22.9688C15.0157 22.9688 14.9835 22.9747 14.9571 22.9776C14.9308 22.9805 14.9161 23.0039 14.922 23.0332V23.0859C14.9161 23.1123 14.9073 23.1415 14.9015 23.1562C14.8956 23.1679 14.8664 23.203 14.8547 23.2147C14.8429 23.2264 14.799 23.2498 14.7844 23.2557C14.7698 23.2616 14.72 23.2645 14.7054 23.2645C14.6907 23.2645 14.6409 23.2498 14.6292 23.2411C14.6146 23.2352 14.5707 23.2118 14.556 23.2147C14.5414 23.2176 14.4887 23.2235 14.4741 23.2264C14.4594 23.2264 14.4097 23.2206 14.395 23.2176C14.3804 23.2118 14.3306 23.1942 14.316 23.1854C14.3014 23.1796 14.2194 23.1854 14.1608 23.2147C14.1023 23.2469 13.9852 23.3962 13.9764 23.4226C13.9647 23.4489 13.9501 23.5602 13.9559 23.5982C13.9589 23.6363 13.9969 23.7153 13.9998 23.6977C14.0028 23.6802 14.0701 23.6363 14.1052 23.6128C14.1404 23.5924 14.2487 23.5543 14.2633 23.5572C14.2779 23.5602 14.2574 23.6304 14.2457 23.6626C14.234 23.6948 14.3336 23.6568 14.4126 23.6392L14.7522 23.566C14.8312 23.5602 14.963 23.5514 15.0449 23.5455L15.6802 23.5133C15.7592 23.5133 15.891 23.5133 15.9729 23.5133L16.5526 23.525C16.6345 23.525 16.7604 23.5367 16.8395 23.5455C16.9156 23.5543 17.1351 23.5367 17.1586 23.5338C17.182 23.5338 17.1908 23.5016 17.1527 23.4899C17.1146 23.4811 16.9507 23.4635 16.8687 23.4635H16.6053C16.5262 23.4635 16.3945 23.4606 16.3125 23.4548L16.1427 23.4167C16.0637 23.4021 15.9817 23.3757 15.9612 23.3611C15.9407 23.3465 15.8617 23.3816 15.8295 23.3904C15.7973 23.3991 15.6685 23.4079 15.6129 23.405C15.5572 23.4021 15.4519 23.3201 15.4928 23.2733C15.5338 23.2235 15.6158 23.0918 15.5836 23.0859C15.5514 23.0801 15.5104 23.0244 15.566 22.9834C15.6216 22.9425 15.7709 22.8283 15.7709 22.8283L15.7651 22.8254Z" fill="#FFEC2D"/>
<path d="M20.2996 23.8324C20.0888 23.9583 19.8605 23.7621 19.8605 23.7621C19.799 23.7094 19.7229 23.727 19.6877 23.8002L19.5472 23.9378C19.518 24.0139 19.4301 24.0637 19.3511 24.0549L19.2545 24.008C19.2223 23.9349 19.1637 23.9319 19.1257 24.0022L18.7861 24.2042C18.7217 24.254 18.6339 24.2393 18.587 24.1749C18.587 24.1749 18.4963 24.1983 18.4436 24.2042C18.3909 24.213 18.3001 24.2657 18.2445 24.3242L18.0894 24.3359C18.0103 24.3359 17.9225 24.2686 17.8961 24.1925C17.8961 24.1925 17.8698 24.1837 17.823 24.2013C17.7761 24.2188 17.6971 24.2862 17.6444 24.3476L17.4336 24.453C17.3546 24.4647 17.3019 24.4091 17.3194 24.3301L17.214 24.2393C17.2287 24.1603 17.2053 24.1486 17.1584 24.2159L16.7691 24.4355C16.7047 24.4852 16.6666 24.4589 16.6813 24.3798L16.5759 24.21C16.5876 24.131 16.5642 24.1193 16.5173 24.1866L16.1836 24.4384C16.1192 24.4852 16.0665 24.4559 16.0665 24.3769L15.9728 24.2627C15.9845 24.1837 15.9435 24.1603 15.8821 24.21L15.3171 24.4033C15.2409 24.4267 15.2234 24.4033 15.2819 24.3447L16.087 23.8178C16.166 23.8002 16.2948 23.7914 16.3768 23.7943L18.2855 23.607C18.3645 23.6011 18.4933 23.5719 18.5665 23.5397L18.6397 23.3904C18.6866 23.323 18.7744 23.2528 18.8359 23.2323C18.8973 23.2118 19.0115 23.0098 19.0496 22.9659C19.0876 22.922 19.3452 22.8751 19.4243 22.881L21.251 22.9952C21.33 23.0039 21.3652 23.0713 21.3242 23.1415L20.9026 23.4665C20.8236 23.4811 20.7094 23.4489 20.6509 23.3962C20.6509 23.3962 20.5718 23.4957 20.5221 23.4694C20.4723 23.4431 20.4313 23.487 20.4284 23.566C20.4284 23.566 20.4225 23.7417 20.2967 23.8324M14.2602 23.1269C14.4242 23.2762 14.5852 23.1327 14.5852 23.1327C14.6437 23.08 14.7521 23.0039 14.8252 22.9688L15.9816 22.3218C16.0489 22.275 16.1485 22.1901 16.2041 22.1345L16.8393 21.7334C16.9096 21.6924 17.0296 21.6485 17.1087 21.6397L18.9764 21.2914C19.0554 21.2826 19.1754 21.2358 19.2428 21.1918L21.2012 19.9096C21.2744 19.8803 21.3886 19.813 21.4501 19.7603L21.576 19.6374C21.6052 19.5642 21.6726 19.45 21.7223 19.3885L22.6767 18.4459C22.7411 18.3961 22.8523 18.3317 22.9284 18.3024L23.3851 18.2234C23.4642 18.2234 23.511 18.2819 23.4847 18.3581L23.2241 18.8791C23.1743 18.9406 23.1948 18.9728 23.271 18.9436L23.4817 18.9318C23.5578 18.9084 23.5871 18.9436 23.5461 19.0138L23.2885 19.4646C23.2212 19.5115 23.2329 19.5554 23.3149 19.5642C23.3149 19.5642 23.3061 19.5993 23.3529 19.6344C23.3998 19.6696 23.3822 19.731 23.309 19.7691L22.7586 20.1409C22.6913 20.1848 22.6913 20.2375 22.7586 20.2609C22.826 20.2843 22.5918 20.4044 22.5157 20.4278L22.3898 20.5712C22.3254 20.6181 22.2551 20.7059 22.2346 20.7615C22.2141 20.8171 22.0385 20.9196 21.9624 20.943C21.9624 20.943 21.9302 20.9898 21.9448 21.0484C21.9595 21.1069 21.9126 21.1889 21.8424 21.2299L21.6667 21.3031C21.5877 21.306 21.5438 21.3704 21.5701 21.4465C21.5701 21.4465 21.5408 21.5197 21.5028 21.587C21.4676 21.6544 21.3798 21.7422 21.3096 21.7832L20.0156 22.3189C19.9395 22.3394 19.9395 22.354 20.0215 22.3511L21.7984 21.9442C21.8746 21.9149 21.9975 21.8681 22.0707 21.8388C22.0707 21.8388 22.0561 21.7568 22.1088 21.7071C22.1614 21.6573 22.138 21.5988 22.0619 21.5753C22.0619 21.5753 22.0356 21.5373 21.9653 21.4992C21.895 21.4612 21.9038 21.4202 21.9829 21.4055L22.7967 21.1889C22.8757 21.1831 22.8816 21.1596 22.8084 21.1391C22.7352 21.1157 22.5157 21.0513 22.4513 21.0308C22.3869 21.0103 22.6386 20.9547 22.7177 20.943L23.3383 20.7205C23.4144 20.6942 23.4115 20.6708 23.3295 20.6678L22.9314 20.58C22.8523 20.58 22.8494 20.5683 22.9284 20.5507L23.8037 20.2024C23.8799 20.176 23.8974 20.1292 23.8447 20.097C23.792 20.0648 23.5783 20.0296 23.5022 20.0121C23.5022 20.0121 23.47 20.0355 23.5081 19.9857C23.5461 19.936 23.6369 19.8628 23.7071 19.8247L24.6615 19.0607C24.7259 19.0109 24.802 18.9084 24.8313 18.8352C24.8313 18.8352 24.8166 18.8323 24.7815 18.7796C24.7464 18.7269 24.6673 18.7269 24.6029 18.7767L24.0028 18.9465C23.9267 18.9758 23.915 18.9553 23.9765 18.9055L25.4373 17.3861C25.49 17.3247 25.4783 17.2339 25.4138 17.1842L25.3026 17.1607C25.2265 17.1871 25.1211 17.2573 25.0655 17.3159L23.9823 18.2175C23.9179 18.2673 23.9121 18.2585 23.9648 18.1971L25.0596 16.7889C25.1035 16.7216 25.1797 16.6133 25.2265 16.5489L25.2792 16.2269C25.2967 16.1478 25.247 16.0834 25.165 16.0805L24.9133 16.1478C24.8547 16.2035 24.7757 16.3059 24.7318 16.3762L23.9384 17.3686C23.8886 17.433 23.8769 17.4242 23.915 17.3539L24.5444 15.4394C24.5649 15.3604 24.5737 15.2315 24.5678 15.1525L24.4419 15.0237C24.3805 14.971 24.3014 14.9915 24.2692 15.0647L24.1375 15.2081C24.1316 15.2872 24.1141 15.4189 24.0965 15.4979L23.6222 16.8007C23.593 16.8768 23.5842 16.8738 23.6018 16.7948L23.6662 15.7556C23.6662 15.6765 23.6076 15.5887 23.5315 15.5653L23.4525 15.5858C23.3968 15.6443 23.3207 15.7497 23.2885 15.8229L20.1122 20.1584C20.0508 20.2111 19.9424 20.2814 19.8692 20.3136L17.6385 21.066C17.5595 21.0835 17.4307 21.1011 17.3487 21.1069L16.9242 21.186C16.8452 21.1948 16.7369 21.2533 16.6871 21.3177L15.32 22.4419C15.2614 22.4946 15.1473 22.556 15.0682 22.5765L14.4066 22.9454C14.3364 22.9805 14.272 23.0303 14.2632 23.0508C14.2573 23.0713 14.2515 23.0918 14.2515 23.1298" fill="#FFEC2D"/>
<path d="M16.3269 21.1801C16.2245 21.3646 16.0986 21.6134 16.0986 21.6134C16.0635 21.6866 15.9698 21.7217 15.8937 21.6954L14.711 21.3763C14.6319 21.3763 14.5002 21.3704 14.4182 21.3646L13.5166 21.0777C13.4434 21.0455 13.3351 20.9723 13.2795 20.9137L12.5037 20.2609C12.4422 20.2082 12.331 20.1438 12.2549 20.1204L11.5581 19.7896C11.4879 19.7486 11.3913 19.6666 11.3415 19.6022L10.0183 18.1473C9.96852 18.0829 9.87776 17.9892 9.81629 17.9394L9.68748 17.8311C9.62015 17.7843 9.55282 17.8106 9.53525 17.8867C9.51769 17.9629 9.29813 17.8867 9.22494 17.8692C9.15176 17.8516 9.11077 17.9687 9.15468 18.036L9.39766 18.5718C9.42401 18.6479 9.3801 18.7035 9.30106 18.6977C9.30106 18.6977 9.26593 18.724 9.18981 18.724C9.1137 18.724 9.09613 18.7796 9.1459 18.8411L9.53818 19.2509C9.59966 19.3036 9.58209 19.3475 9.50305 19.3505C9.50305 19.3505 9.47963 19.3739 9.40644 19.3827C9.33326 19.3915 9.3274 19.4412 9.38888 19.491L9.91875 19.7691C9.99194 19.8013 10.0329 19.8803 10.0066 19.9477C9.98315 20.0121 10.1529 20.1526 10.232 20.1731C10.232 20.1731 10.1822 20.1965 10.2027 20.2346C10.2232 20.2726 10.2232 20.3604 10.2027 20.4307C10.1822 20.501 10.3784 20.5683 10.4574 20.5859C10.4574 20.5859 10.4574 20.6268 10.5218 20.6532C10.5862 20.6795 10.5774 20.7322 10.5072 20.7703C10.5072 20.7703 10.5452 20.8259 10.5335 20.8757C10.5218 20.9254 10.5745 20.9898 10.6477 21.022L11.0429 21.1362C11.1219 21.1509 11.1307 21.1948 11.0605 21.2358L10.9316 21.3382C10.8614 21.3763 10.8643 21.4377 10.9375 21.4699L12.3954 22.0876C12.4715 22.114 12.5974 22.155 12.6735 22.1813L13.1097 22.2984C13.1887 22.3189 13.1858 22.3218 13.1097 22.3072L11.3503 21.8447C11.2742 21.8154 11.1512 21.7686 11.078 21.7363L10.3344 21.4319C10.2583 21.4026 10.2613 21.3587 10.3374 21.3353L10.5364 21.2504C10.6155 21.2299 10.6126 21.2036 10.5335 21.1948L9.85435 20.9928C9.77823 20.9694 9.76067 20.9313 9.81921 20.9079C9.87776 20.8845 10.0768 20.8083 10.1559 20.782C10.1559 20.782 10.1559 20.7703 10.1207 20.7527C10.0827 20.7352 9.98608 20.7147 9.90704 20.7088L9.45328 20.5683C9.37424 20.5507 9.36546 20.5215 9.42986 20.5068C9.49719 20.4922 9.69626 20.4307 9.76359 20.4219C9.83092 20.4131 9.91289 20.3224 9.83092 20.3195L8.94683 19.9857C8.87072 19.9652 8.85316 19.9418 8.9117 19.933C8.97025 19.9272 9.16346 19.9096 9.24251 19.9213L9.56745 19.8891C9.64649 19.8862 9.65235 19.8569 9.57916 19.8277L8.27352 19.0489C8.20619 19.005 8.11544 18.9143 8.0686 18.847C8.0686 18.847 8.09787 18.847 8.09202 18.7855C8.08323 18.724 8.133 18.7123 8.1974 18.7591L8.86194 18.9523C8.9322 18.9904 8.94683 18.9816 8.89121 18.9377C8.83559 18.8909 8.67751 18.7211 8.61896 18.6684L7.45676 17.392C7.40699 17.3305 7.41578 17.2369 7.48018 17.1871L7.58264 17.1607C7.65875 17.1842 7.76707 17.2544 7.81976 17.313L8.83852 18.1824C8.89999 18.2351 8.92927 18.2527 8.90292 18.2263C8.87658 18.2 8.77411 18.0595 8.72435 17.998L7.70559 16.5489C7.66168 16.4816 7.59728 16.3674 7.56508 16.2942C7.56508 16.2942 7.5885 16.2562 7.60899 16.1859C7.62948 16.1156 7.71145 16.0629 7.79342 16.0688L7.96614 16.1244C8.02176 16.183 8.10373 16.2854 8.14471 16.3528L8.96147 17.3715C9.01124 17.4359 9.02002 17.4301 8.98489 17.3569L8.35549 15.4482C8.335 15.3691 8.32329 15.2403 8.32621 15.1613L8.44038 15.0383C8.49601 14.9798 8.57505 14.9769 8.61603 15.0296C8.65702 15.0822 8.75948 15.296 8.77411 15.375L9.28056 16.8007C9.30691 16.8768 9.31862 16.8738 9.30106 16.7948L9.22494 15.7848C9.22201 15.7058 9.26007 15.5975 9.30691 15.5448C9.35668 15.495 9.51476 15.6033 9.53233 15.6824L9.65235 16.0805C9.66699 16.1595 9.7109 16.2825 9.74603 16.3557L12.2812 19.8277C12.3398 19.8833 12.4451 19.9594 12.5183 19.9945L15.8351 21.1333C15.9142 21.1479 16.0313 21.1655 16.0957 21.1684C16.1601 21.1714 16.2128 21.1743 16.3269 21.1831" fill="#FFEC2D"/>
<path d="M14.7021 23.0303C14.7402 23.0303 14.7724 23.0625 14.7724 23.1005C14.7724 23.1386 14.7402 23.1708 14.7021 23.1708C14.664 23.1708 14.6318 23.1386 14.6318 23.1005C14.6318 23.0625 14.664 23.0303 14.7021 23.0303Z" fill="#FFEC2D"/>
<path d="M14.6963 23.0596C14.7109 23.0596 14.7255 23.0713 14.7255 23.0888C14.7255 23.1064 14.7138 23.1181 14.6963 23.1181C14.6787 23.1181 14.667 23.1064 14.667 23.0888C14.667 23.0713 14.6787 23.0596 14.6963 23.0596Z" fill="#FFEC2D"/>
<path d="M14.6963 23.124C14.6787 23.124 14.6641 23.1093 14.6641 23.0888C14.6641 23.0683 14.6787 23.0566 14.6963 23.0566C14.7138 23.0566 14.7285 23.0713 14.7285 23.0888C14.7285 23.1064 14.7138 23.124 14.6963 23.124ZM14.6963 23.0654C14.6963 23.0654 14.6728 23.0771 14.6728 23.0888C14.6728 23.1005 14.6846 23.1122 14.6963 23.1122C14.708 23.1122 14.7197 23.1005 14.7197 23.0888C14.7197 23.0771 14.708 23.0654 14.6963 23.0654Z" fill="#FFEC2D"/>
</svg>
