<svg viewBox="0 0 32 32" fill="none" xmlns="http://www.w3.org/2000/svg">
<path d="M45.2258 0.0380859H-12.8181C-12.8991 0.0380859 -12.9648 0.1038 -12.9648 0.184861V31.8561C-12.9648 31.9371 -12.8991 32.0029 -12.8181 32.0029H45.2258C45.3068 32.0029 45.3726 31.9371 45.3726 31.8561V0.184861C45.3726 0.1038 45.3068 0.0380859 45.2258 0.0380859Z" fill="#006600"/>
<path d="M45.2258 0.0381622H-12.8181C-12.8991 0.0381622 -12.9648 0.103876 -12.9648 0.184938V22.7238C-12.9648 22.8048 -12.8991 22.8706 -12.8181 22.8706H45.2258C45.3068 22.8706 45.3726 22.8048 45.3726 22.7238V0.184938C45.3726 0.103876 45.3068 0.0381622 45.2258 0.0381622Z" fill="white"/>
<path d="M45.2288 22.9058H-12.818C-12.9178 22.9058 -13 22.8236 -13 22.7238V0.182002C-13 0.0821943 -12.9178 0 -12.818 0H45.2258C45.3257 0 45.4078 0.0821943 45.4078 0.182002V22.7209C45.4078 22.8207 45.3257 22.9029 45.2258 22.9029L45.2288 22.9058ZM-12.818 0.0733878C-12.8796 0.0733878 -12.9295 0.123291 -12.9295 0.184937V22.7238C-12.9295 22.7854 -12.8796 22.8353 -12.818 22.8353H45.2258C45.2875 22.8353 45.3374 22.7854 45.3374 22.7238V0.182002C45.3374 0.120356 45.2875 0.0704523 45.2258 0.0704523H-12.818V0.0733878Z" fill="#C7C8CA"/>
<path d="M45.2258 0.0380859H-12.8181C-12.8991 0.0380859 -12.9648 0.1038 -12.9648 0.184861V9.02368C-12.9648 9.10474 -12.8991 9.17046 -12.8181 9.17046H45.2258C45.3068 9.17046 45.3726 9.10474 45.3726 9.02368V0.184861C45.3726 0.1038 45.3068 0.0380859 45.2258 0.0380859Z" fill="#CC0000"/>
<path d="M15.0408 15.5788C15.1846 15.3058 15.6074 15.3557 15.6074 15.3557C15.6866 15.3645 15.7982 15.4202 15.851 15.4819L15.9714 15.7079C15.9919 15.7872 16.0095 15.9163 16.0095 15.9956V17.9859C16.0095 18.0651 16.077 18.1327 16.1563 18.1327H16.2532C16.3324 18.1327 16.3999 18.0651 16.3999 17.9859V15.9956C16.3999 15.9163 16.4264 15.7872 16.4587 15.7138L16.8021 15.3557C16.8755 15.3234 16.9988 15.3146 17.0751 15.341L17.2718 15.4701C17.3276 15.5289 17.3657 15.5112 17.3569 15.432L16.6935 13.9789C16.6377 13.9231 16.5232 13.882 16.444 13.8908L15.1289 14.6159C15.076 14.6776 15.0261 14.795 15.0144 14.8742C15.0144 14.8742 14.9527 15.3028 15.0349 15.5758" fill="#F8C300"/>
<path d="M15.3203 14.9834C15.6696 14.9041 16.1012 15.318 16.1012 15.318C16.1599 15.3738 16.2538 15.3738 16.3125 15.318L16.9495 15.0039C17.0288 14.9922 17.0611 14.9276 17.0229 14.8572L16.2245 14.1908C16.1481 14.1673 16.0278 14.1791 15.9573 14.2172C15.9573 14.2172 15.3732 14.5489 15.3203 14.9834Z" fill="white"/>
<path d="M16.0408 17.3641C16.0232 17.2848 15.9791 17.279 15.9439 17.3523L14.4292 18.7438C14.3529 18.7731 14.2296 18.7761 14.1503 18.7555L13.4693 18.4209C13.4047 18.3739 13.3049 18.3827 13.2491 18.4414L11.3586 19.3367C11.2794 19.3397 11.1561 19.3162 11.0915 19.281C11.024 19.2457 10.9183 19.1636 10.9917 19.2046L13.346 18.9316C13.4076 18.8817 13.5221 18.8671 13.5955 18.8964L16.1054 18.2389C16.1611 18.1802 16.1934 18.0686 16.1787 17.9893L16.0466 17.3641H16.0408Z" fill="#F8C300"/>
<path d="M16.37 17.3641C16.3876 17.2848 16.4317 17.279 16.4669 17.3523L17.9816 18.7438C18.0579 18.7731 18.1812 18.7761 18.2605 18.7555L18.9415 18.4209C19.0061 18.3739 19.1059 18.3827 19.1617 18.4414L21.0522 19.3367C21.1314 19.3397 21.2547 19.3162 21.3193 19.281C21.3868 19.2457 21.4925 19.1636 21.4191 19.2046L19.0648 18.9316C19.0032 18.8817 18.8887 18.8671 18.8153 18.8964L16.3054 18.2389C16.2497 18.1802 16.2174 18.0686 16.2321 17.9893L16.3641 17.3641H16.37Z" fill="#F8C300"/>
<path d="M14.4917 20.1732C14.4917 20.1732 14.4418 20.2172 14.3831 20.273L13.1208 20.502C13.0445 20.4726 13.0357 20.408 13.0973 20.361C13.159 20.3141 13.4525 20.1614 13.4613 20.0822L13.5582 19.7064C13.5934 19.633 13.6727 19.6213 13.7314 19.6741L13.9281 19.9853C13.9663 20.0558 14.0631 20.1233 14.1424 20.1321C14.1424 20.1321 14.3684 20.091 14.4125 20.1203C14.4565 20.1497 14.4917 20.1732 14.4917 20.1732Z" fill="#F8C300"/>
<path d="M16.9744 20.0883C16.9744 20.0883 16.9187 20.1235 16.8512 20.1675H15.5713C15.5038 20.1235 15.5008 20.0589 15.5713 20.0237C15.6388 19.9885 15.9529 19.8887 15.9734 19.8123L16.1232 19.4601C16.1701 19.3955 16.2494 19.3926 16.2963 19.4571L16.4461 19.8035C16.4725 19.8799 16.5576 19.9621 16.6369 19.9855C16.6369 19.9855 16.8658 19.9855 16.904 20.0237C16.9422 20.0619 16.9744 20.0912 16.9744 20.0912V20.0883Z" fill="#F8C300"/>
<path d="M19.4373 20.4463C19.4373 20.4463 19.3757 20.4728 19.3023 20.5051L18.04 20.2731C17.9784 20.2203 17.9901 20.1557 18.0605 20.1322C18.1339 20.1088 18.4568 20.0677 18.4891 19.9943L18.6887 19.6772C18.7445 19.6185 18.8238 19.6303 18.8619 19.7007L18.9588 20.0735C18.9735 20.1528 19.0439 20.2467 19.1173 20.2849C19.1173 20.2849 19.3434 20.326 19.3786 20.37C19.4109 20.4141 19.4402 20.4493 19.4402 20.4493L19.4373 20.4463Z" fill="#F8C300"/>
<path d="M20.1391 22.1809C17.5676 21.3413 14.8464 21.3413 12.2719 22.1809L12.0547 21.5174C14.77 20.6309 17.638 20.6309 20.3563 21.5174L20.1391 22.1809Z" fill="#F8C300"/>
<path d="M15.3313 10.7208C15.2667 10.6709 15.2814 10.6298 15.3636 10.6298H17.0515C17.1308 10.6298 17.1455 10.6709 17.0838 10.7208L15.71 11.8128C15.6454 11.8627 15.6131 11.8422 15.6366 11.7629L16.165 9.97814C16.1885 9.90182 16.2266 9.90182 16.2472 9.97814L16.7756 11.7629C16.7991 11.8393 16.7668 11.8627 16.7022 11.8128L15.3284 10.7208H15.3313Z" fill="#F8C300"/>
<path d="M12.4133 11.5751C12.3488 11.5252 12.3634 11.4841 12.4456 11.4841H14.1336C14.2128 11.4841 14.2275 11.5252 14.1658 11.5751L12.792 12.6671C12.7274 12.717 12.6952 12.6964 12.7186 12.6172L13.247 10.8324C13.2705 10.7561 13.3087 10.7561 13.3292 10.8324L13.8576 12.6172C13.8811 12.6935 13.8488 12.717 13.7842 12.6671L12.4104 11.5751H12.4133Z" fill="#F8C300"/>
<path d="M10.2786 13.9144C10.214 13.8645 10.2287 13.8234 10.3109 13.8234H11.9988C12.078 13.8234 12.0927 13.8645 12.0311 13.9144L10.6573 15.0064C10.5927 15.0563 10.5604 15.0358 10.5839 14.9565L11.1123 13.1717C11.1357 13.0954 11.1739 13.0954 11.1945 13.1717L11.7229 14.9565C11.7463 15.0328 11.714 15.0563 11.6495 15.0064L10.2756 13.9144H10.2786Z" fill="#F8C300"/>
<path d="M9.49538 17.1114C9.4308 17.0615 9.44547 17.0204 9.52767 17.0204H11.2156C11.2948 17.0204 11.3095 17.0615 11.2479 17.1114L9.87406 18.2034C9.80948 18.2533 9.77719 18.2328 9.80067 18.1535L10.3291 16.3688C10.3525 16.2924 10.3907 16.2924 10.4113 16.3688L10.9396 18.1535C10.9631 18.2299 10.9308 18.2533 10.8663 18.2034L9.49244 17.1114H9.49538Z" fill="#F8C300"/>
<path d="M19.9977 11.5753C20.0623 11.5254 20.0476 11.4843 19.9654 11.4843H18.2775C18.1982 11.4843 18.1835 11.5254 18.2452 11.5753L19.619 12.6673C19.6836 12.7172 19.7159 12.6967 19.6924 12.6174L19.164 10.8326C19.1405 10.7563 19.1024 10.7563 19.0818 10.8326L18.5534 12.6174C18.5299 12.6937 18.5622 12.7172 18.6268 12.6673L20.0006 11.5753H19.9977Z" fill="#F8C300"/>
<path d="M22.1344 13.9152C22.199 13.8653 22.1843 13.8242 22.1021 13.8242H20.4142C20.3349 13.8242 20.3203 13.8653 20.3819 13.9152L21.7557 15.0072C21.8203 15.0571 21.8526 15.0365 21.8291 14.9573L21.3007 13.1725C21.2772 13.0962 21.2391 13.0962 21.2185 13.1725L20.6901 14.9573C20.6666 15.0336 20.6989 15.0571 20.7635 15.0072L22.1373 13.9152H22.1344Z" fill="#F8C300"/>
<path d="M22.9166 17.1115C22.9811 17.0615 22.9665 17.0204 22.8843 17.0204H21.1963C21.1142 17.0204 21.1024 17.0615 21.1641 17.1115L22.5379 18.2035C22.6025 18.2534 22.6347 18.2328 22.6113 18.1536L22.0829 16.3688C22.0594 16.2924 22.0212 16.2924 22.0007 16.3688L21.4723 18.1536C21.4488 18.2299 21.4811 18.2534 21.5457 18.2035L22.9195 17.1115H22.9166Z" fill="#F8C300"/>
</svg>
