<svg viewBox="0 0 32 32" fill="none" xmlns="http://www.w3.org/2000/svg">
<path d="M58.8907 0.0380859H0.182745C0.101234 0.0380859 0.0351562 0.103963 0.0351562 0.185226V31.8174C0.0351562 31.8986 0.101234 31.9645 0.182745 31.9645H58.8907C58.9722 31.9645 59.0383 31.8986 59.0383 31.8174V0.185226C59.0383 0.103963 58.9722 0.0380859 58.8907 0.0380859Z" fill="white"/>
<path d="M58.8939 32H0.18301C0.0826498 32 0 31.9176 0 31.8175V0.182454C0 0.0823984 0.0826498 0 0.18301 0H58.891C58.9913 0 59.074 0.0823984 59.074 0.182454V31.8146C59.074 31.9147 58.9913 31.9971 58.891 31.9971L58.8939 32ZM0.18301 0.07357C0.121023 0.07357 0.0708427 0.123598 0.0708427 0.185396V31.8175C0.0708427 31.8793 0.121023 31.9294 0.18301 31.9294H58.891C58.9529 31.9294 59.0031 31.8793 59.0031 31.8175V0.182454C59.0031 0.120655 58.9529 0.0706272 58.891 0.0706272H0.18301V0.07357Z" fill="#C7C8CA"/>
<path d="M58.8907 15.4702H0.182745C0.101234 15.4702 0.0351562 15.5361 0.0351562 15.6174V31.8175C0.0351562 31.8987 0.101234 31.9646 0.182745 31.9646H58.8907C58.9722 31.9646 59.0383 31.8987 59.0383 31.8175V15.6174C59.0383 15.5361 58.9722 15.4702 58.8907 15.4702Z" fill="#DB2E2E"/>
<path d="M58.9232 10.5381H0.182745C0.101234 10.5381 0.0351562 10.604 0.0351562 10.6852V21.1322C0.0351562 21.2134 0.101234 21.2793 0.182745 21.2793H58.9232C59.0047 21.2793 59.0708 21.2134 59.0708 21.1322V10.6852C59.0708 10.604 59.0047 10.5381 58.9232 10.5381Z" fill="#3C5EBF"/>
</svg>
