<svg viewBox="0 0 32 32" fill="none" xmlns="http://www.w3.org/2000/svg">
<path d="M58.4393 0H0.18073C0.100332 0 0.0351562 0.0651755 0.0351562 0.145574V31.8544C0.0351562 31.9348 0.100332 32 0.18073 32H58.4393C58.5197 32 58.5849 31.9348 58.5849 31.8544V0.145574C58.5849 0.0651755 58.5197 0 58.4393 0Z" fill="#1EB53A"/>
<path d="M58.4393 0H0.18073C0.100332 0 0.0351562 0.0651755 0.0351562 0.145574V15.8559C0.0351562 15.9363 0.100332 16.0015 0.18073 16.0015H58.4393C58.5197 16.0015 58.5849 15.9363 58.5849 15.8559V0.145574C58.5849 0.0651755 58.5197 0 58.4393 0Z" fill="#0099B5"/>
<path d="M58.4393 10.2397H0.18073C0.100332 10.2397 0.0351562 10.3048 0.0351562 10.3852V21.6148C0.0351562 21.6952 0.100332 21.7604 0.18073 21.7604H58.4393C58.5197 21.7604 58.5849 21.6952 58.5849 21.6148V10.3852C58.5849 10.3048 58.5197 10.2397 58.4393 10.2397Z" fill="#CE1126"/>
<path d="M58.4393 10.8802H0.18073C0.100332 10.8802 0.0351562 10.9453 0.0351562 11.0257V20.9742C0.0351562 21.0546 0.100332 21.1198 0.18073 21.1198H58.4393C58.5197 21.1198 58.5849 21.0546 58.5849 20.9742V11.0257C58.5849 10.9453 58.5197 10.8802 58.4393 10.8802Z" fill="white"/>
<path d="M58.442 21.1577H0.180511C0.0815213 21.1577 0 21.0761 0 20.9772V11.0287C0 10.9297 0.0815213 10.8481 0.180511 10.8481H58.4391C58.5381 10.8481 58.6196 10.9297 58.6196 11.0287V20.9772C58.6196 21.0761 58.5381 21.1577 58.4391 21.1577H58.442ZM0.180511 10.918C0.11937 10.918 0.0698754 10.9675 0.0698754 11.0287V20.9772C0.0698754 21.0383 0.11937 21.0878 0.180511 21.0878H58.4391C58.5002 21.0878 58.5497 21.0383 58.5497 20.9772V11.0287C58.5497 10.9675 58.5002 10.918 58.4391 10.918H0.180511Z" fill="#C7C8CA"/>
<path d="M8.2329 8.96172C10.1737 8.96172 11.747 7.24238 11.747 5.12148C11.747 3.00058 10.1737 1.28125 8.2329 1.28125C6.29209 1.28125 4.71875 3.00058 4.71875 5.12148C4.71875 7.24238 6.29209 8.96172 8.2329 8.96172Z" fill="white"/>
<path d="M9.40477 8.96172C11.3456 8.96172 12.9189 7.24238 12.9189 5.12148C12.9189 3.00058 11.3456 1.28125 9.40477 1.28125C7.46396 1.28125 5.89062 3.00058 5.89062 5.12148C5.89062 7.24238 7.46396 8.96172 9.40477 8.96172Z" fill="#0099B5"/>
<path d="M15.9622 7.42426L15.7875 8.01528C15.7642 8.09098 15.8079 8.17542 15.8836 8.20453L16.0816 8.27441" fill="white"/>
<path d="M15.9631 7.42426L16.1378 8.01528C16.1611 8.09098 16.1174 8.17542 16.0417 8.20453L15.8438 8.27441" fill="white"/>
<path d="M16.6274 7.95404H16.0714C15.9927 7.95404 15.9258 8.021 15.9258 8.09961V8.33835" fill="white"/>
<path d="M16.628 7.95404L16.1738 8.31506C16.1097 8.36456 16.0224 8.35 15.9787 8.28304L15.8535 8.09379" fill="white"/>
<path d="M15.293 7.95415L15.7472 8.31517C15.8112 8.36466 15.8986 8.35011 15.9422 8.28314L16.0674 8.0939" fill="white"/>
<path d="M15.293 7.95415H15.8491C15.9277 7.95415 15.9946 8.02111 15.9946 8.09972V8.33846" fill="white"/>
<path d="M16.3725 8.81304L16.1978 8.22201C16.1746 8.14632 16.0959 8.10556 16.0202 8.13176L15.8223 8.20163" fill="white"/>
<path d="M16.3729 8.81304L15.9187 8.45202C15.8546 8.40252 15.8401 8.30644 15.8867 8.23948L16.0119 8.05023" fill="white"/>
<path d="M15.5488 8.81304L16.003 8.45202C16.0671 8.40252 16.0816 8.30644 16.035 8.23948L15.9099 8.05023" fill="white"/>
<path d="M15.5488 8.81304L15.7235 8.22201C15.7468 8.14632 15.8254 8.10556 15.9011 8.13176L16.0991 8.20163" fill="white"/>
<path d="M15.9622 4.35266L15.7875 4.94369C15.7642 5.01939 15.8079 5.10382 15.8836 5.13294L16.0816 5.20281" fill="white"/>
<path d="M15.9631 4.35266L16.1378 4.94369C16.1611 5.01939 16.1174 5.10382 16.0417 5.13294L15.8438 5.20281" fill="white"/>
<path d="M16.6274 4.88245H16.0714C15.9927 4.88245 15.9258 4.94941 15.9258 5.02802V5.26676" fill="white"/>
<path d="M16.628 4.88245L16.1738 5.24347C16.1097 5.29296 16.0224 5.27841 15.9787 5.21144L15.8535 5.0222" fill="white"/>
<path d="M15.293 4.88255L15.7472 5.24358C15.8112 5.29307 15.8986 5.27851 15.9422 5.21155L16.0674 5.0223" fill="white"/>
<path d="M15.293 4.88255H15.8491C15.9277 4.88255 15.9946 4.94952 15.9946 5.02813V5.26687" fill="white"/>
<path d="M16.3725 5.74145L16.1978 5.15042C16.1746 5.07472 16.0959 5.03396 16.0202 5.06016L15.8223 5.13004" fill="white"/>
<path d="M16.3729 5.74144L15.9187 5.38042C15.8546 5.33093 15.8401 5.23485 15.8867 5.16788L16.0119 4.97864" fill="white"/>
<path d="M15.5488 5.74144L16.003 5.38042C16.0671 5.33093 16.0816 5.23485 16.035 5.16788L15.9099 4.97864" fill="white"/>
<path d="M15.5488 5.74145L15.7235 5.15042C15.7468 5.07472 15.8254 5.03396 15.9011 5.06016L16.0991 5.13004" fill="white"/>
<path d="M15.9622 1.28105L15.7875 1.87208C15.7642 1.94778 15.8079 2.03221 15.8836 2.06133L16.0816 2.1312" fill="white"/>
<path d="M15.9631 1.28105L16.1378 1.87208C16.1611 1.94778 16.1174 2.03221 16.0417 2.06133L15.8438 2.1312" fill="white"/>
<path d="M16.6274 1.81084H16.0714C15.9927 1.81084 15.9258 1.8778 15.9258 1.95641V2.19515" fill="white"/>
<path d="M16.628 1.81084L16.1738 2.17186C16.1097 2.22135 16.0224 2.2068 15.9787 2.13983L15.8535 1.95059" fill="white"/>
<path d="M15.293 1.81094L15.7472 2.17197C15.8112 2.22146 15.8986 2.2069 15.9422 2.13994L16.0674 1.95069" fill="white"/>
<path d="M15.293 1.81094H15.8491C15.9277 1.81094 15.9946 1.87791 15.9946 1.95652V2.19526" fill="white"/>
<path d="M16.3725 2.66984L16.1978 2.07881C16.1746 2.00311 16.0959 1.96235 16.0202 1.98855L15.8223 2.05843" fill="white"/>
<path d="M16.3729 2.66983L15.9187 2.30881C15.8546 2.25932 15.8401 2.16324 15.8867 2.09627L16.0119 1.90703" fill="white"/>
<path d="M15.5488 2.66983L16.003 2.30881C16.0671 2.25932 16.0816 2.16324 16.035 2.09627L15.9099 1.90703" fill="white"/>
<path d="M15.5488 2.66984L15.7235 2.07881C15.7468 2.00311 15.8254 1.96235 15.9011 1.98855L16.0991 2.05843" fill="white"/>
<path d="M18.7728 7.42426L18.5981 8.01528C18.5748 8.09098 18.6185 8.17542 18.6941 8.20453L18.8921 8.27441" fill="white"/>
<path d="M18.7737 7.42426L18.9484 8.01528C18.9716 8.09098 18.928 8.17542 18.8523 8.20453L18.6543 8.27441" fill="white"/>
<path d="M19.438 7.95404H18.8819C18.8033 7.95404 18.7363 8.021 18.7363 8.09961V8.33835" fill="white"/>
<path d="M19.4385 7.95404L18.9843 8.31506C18.9203 8.36456 18.8329 8.35 18.7893 8.28304L18.6641 8.09379" fill="white"/>
<path d="M18.1035 7.95415L18.5577 8.31517C18.6218 8.36466 18.7091 8.35011 18.7528 8.28314L18.878 8.0939" fill="white"/>
<path d="M18.1035 7.95415H18.6596C18.7382 7.95415 18.8052 8.02111 18.8052 8.09972V8.33846" fill="white"/>
<path d="M19.187 8.81304L19.0123 8.22201C18.989 8.14632 18.9104 8.10556 18.8347 8.13176L18.6367 8.20163" fill="white"/>
<path d="M19.1873 8.81304L18.7332 8.45202C18.6691 8.40252 18.6545 8.30644 18.7011 8.23948L18.8263 8.05023" fill="white"/>
<path d="M18.3594 8.81304L18.8136 8.45202C18.8776 8.40252 18.8922 8.30644 18.8456 8.23948L18.7204 8.05023" fill="white"/>
<path d="M18.3594 8.81304L18.5341 8.22201C18.5574 8.14632 18.636 8.10556 18.7117 8.13176L18.9096 8.20163" fill="white"/>
<path d="M18.7728 4.35266L18.5981 4.94369C18.5748 5.01939 18.6185 5.10382 18.6941 5.13294L18.8921 5.20281" fill="white"/>
<path d="M18.7737 4.35266L18.9484 4.94369C18.9716 5.01939 18.928 5.10382 18.8523 5.13294L18.6543 5.20281" fill="white"/>
<path d="M19.438 4.88245H18.8819C18.8033 4.88245 18.7363 4.94941 18.7363 5.02802V5.26676" fill="white"/>
<path d="M19.4385 4.88245L18.9843 5.24347C18.9203 5.29296 18.8329 5.27841 18.7893 5.21144L18.6641 5.0222" fill="white"/>
<path d="M18.1035 4.88255L18.5577 5.24358C18.6218 5.29307 18.7091 5.27851 18.7528 5.21155L18.878 5.0223" fill="white"/>
<path d="M18.1035 4.88255H18.6596C18.7382 4.88255 18.8052 4.94952 18.8052 5.02813V5.26687" fill="white"/>
<path d="M19.187 5.74145L19.0123 5.15042C18.989 5.07472 18.9104 5.03396 18.8347 5.06016L18.6367 5.13004" fill="white"/>
<path d="M19.1873 5.74144L18.7332 5.38042C18.6691 5.33093 18.6545 5.23485 18.7011 5.16788L18.8263 4.97864" fill="white"/>
<path d="M18.3594 5.74144L18.8136 5.38042C18.8776 5.33093 18.8922 5.23485 18.8456 5.16788L18.7204 4.97864" fill="white"/>
<path d="M18.3594 5.74145L18.5341 5.15042C18.5574 5.07472 18.636 5.03396 18.7117 5.06016L18.9096 5.13004" fill="white"/>
<path d="M18.7728 1.28105L18.5981 1.87208C18.5748 1.94778 18.6185 2.03221 18.6941 2.06133L18.8921 2.1312" fill="white"/>
<path d="M18.7737 1.28105L18.9484 1.87208C18.9716 1.94778 18.928 2.03221 18.8523 2.06133L18.6543 2.1312" fill="white"/>
<path d="M19.438 1.81084H18.8819C18.8033 1.81084 18.7363 1.8778 18.7363 1.95641V2.19515" fill="white"/>
<path d="M19.4385 1.81084L18.9843 2.17186C18.9203 2.22135 18.8329 2.2068 18.7893 2.13983L18.6641 1.95059" fill="white"/>
<path d="M18.1035 1.81094L18.5577 2.17197C18.6218 2.22146 18.7091 2.2069 18.7528 2.13994L18.878 1.95069" fill="white"/>
<path d="M18.1035 1.81094H18.6596C18.7382 1.81094 18.8052 1.87791 18.8052 1.95652V2.19526" fill="white"/>
<path d="M19.187 2.66984L19.0123 2.07881C18.989 2.00311 18.9104 1.96235 18.8347 1.98855L18.6367 2.05843" fill="white"/>
<path d="M19.1873 2.66983L18.7332 2.30881C18.6691 2.25932 18.6545 2.16324 18.7011 2.09627L18.8263 1.90703" fill="white"/>
<path d="M18.3594 2.66983L18.8136 2.30881C18.8776 2.25932 18.8922 2.16324 18.8456 2.09627L18.7204 1.90703" fill="white"/>
<path d="M18.3594 2.66984L18.5341 2.07881C18.5574 2.00311 18.636 1.96235 18.7117 1.98855L18.9096 2.05843" fill="white"/>
<path d="M21.5833 7.42426L21.4086 8.01528C21.3853 8.09098 21.429 8.17542 21.5047 8.20453L21.7027 8.27441" fill="white"/>
<path d="M21.5842 7.42426L21.7589 8.01528C21.7822 8.09098 21.7385 8.17542 21.6628 8.20453L21.4648 8.27441" fill="white"/>
<path d="M22.2524 7.95415H21.6964C21.6177 7.95415 21.5508 8.02111 21.5508 8.09972V8.33846" fill="white"/>
<path d="M22.253 7.95415L21.7988 8.31517C21.7347 8.36466 21.6474 8.35011 21.6037 8.28314L21.4785 8.0939" fill="white"/>
<path d="M20.916 7.95415L21.3702 8.31517C21.4343 8.36466 21.5216 8.35011 21.5653 8.28314L21.6905 8.0939" fill="white"/>
<path d="M20.916 7.95415H21.4721C21.5507 7.95415 21.6177 8.02111 21.6177 8.09972V8.33846" fill="white"/>
<path d="M21.9975 8.81304L21.8228 8.22201C21.7996 8.14632 21.7209 8.10556 21.6452 8.13176L21.4473 8.20163" fill="white"/>
<path d="M21.9979 8.81304L21.5437 8.45202C21.4796 8.40252 21.4651 8.30644 21.5117 8.23948L21.6369 8.05023" fill="white"/>
<path d="M21.1699 8.81304L21.6241 8.45202C21.6882 8.40252 21.7027 8.30644 21.6561 8.23948L21.5309 8.05023" fill="white"/>
<path d="M21.1699 8.81304L21.3446 8.22201C21.3679 8.14632 21.4465 8.10556 21.5222 8.13176L21.7202 8.20163" fill="white"/>
<path d="M21.5833 4.35266L21.4086 4.94369C21.3853 5.01939 21.429 5.10382 21.5047 5.13294L21.7027 5.20281" fill="white"/>
<path d="M21.5842 4.35266L21.7589 4.94369C21.7822 5.01939 21.7385 5.10382 21.6628 5.13294L21.4648 5.20281" fill="white"/>
<path d="M22.2524 4.88255H21.6964C21.6177 4.88255 21.5508 4.94952 21.5508 5.02813V5.26687" fill="white"/>
<path d="M22.253 4.88255L21.7988 5.24358C21.7347 5.29307 21.6474 5.27851 21.6037 5.21155L21.4785 5.0223" fill="white"/>
<path d="M20.916 4.88255L21.3702 5.24358C21.4343 5.29307 21.5216 5.27851 21.5653 5.21155L21.6905 5.0223" fill="white"/>
<path d="M20.916 4.88255H21.4721C21.5507 4.88255 21.6177 4.94952 21.6177 5.02813V5.26687" fill="white"/>
<path d="M21.9975 5.74145L21.8228 5.15042C21.7996 5.07472 21.7209 5.03396 21.6452 5.06016L21.4473 5.13004" fill="white"/>
<path d="M21.9979 5.74144L21.5437 5.38042C21.4796 5.33093 21.4651 5.23485 21.5117 5.16788L21.6369 4.97864" fill="white"/>
<path d="M21.1699 5.74144L21.6241 5.38042C21.6882 5.33093 21.7027 5.23485 21.6561 5.16788L21.5309 4.97864" fill="white"/>
<path d="M21.1699 5.74145L21.3446 5.15042C21.3679 5.07472 21.4465 5.03396 21.5222 5.06016L21.7202 5.13004" fill="white"/>
<path d="M21.5833 1.28105L21.4086 1.87208C21.3853 1.94778 21.429 2.03221 21.5047 2.06133L21.7027 2.1312" fill="white"/>
<path d="M21.5842 1.28105L21.7589 1.87208C21.7822 1.94778 21.7385 2.03221 21.6628 2.06133L21.4648 2.1312" fill="white"/>
<path d="M22.2524 1.81094H21.6964C21.6177 1.81094 21.5508 1.87791 21.5508 1.95652V2.19526" fill="white"/>
<path d="M22.253 1.81094L21.7988 2.17197C21.7347 2.22146 21.6474 2.2069 21.6037 2.13994L21.4785 1.95069" fill="white"/>
<path d="M20.916 1.81094L21.3702 2.17197C21.4343 2.22146 21.5216 2.2069 21.5653 2.13994L21.6905 1.95069" fill="white"/>
<path d="M20.916 1.81094H21.4721C21.5507 1.81094 21.6177 1.87791 21.6177 1.95652V2.19526" fill="white"/>
<path d="M21.9975 2.66984L21.8228 2.07881C21.7996 2.00311 21.7209 1.96235 21.6452 1.98855L21.4473 2.05843" fill="white"/>
<path d="M21.9979 2.66983L21.5437 2.30881C21.4796 2.25932 21.4651 2.16324 21.5117 2.09627L21.6369 1.90703" fill="white"/>
<path d="M21.1699 2.66983L21.6241 2.30881C21.6882 2.25932 21.7027 2.16324 21.6561 2.09627L21.5309 1.90703" fill="white"/>
<path d="M21.1699 2.66984L21.3446 2.07881C21.3679 2.00311 21.4465 1.96235 21.5222 1.98855L21.7202 2.05843" fill="white"/>
<path d="M10.3411 7.42426L10.1664 8.01528C10.1431 8.09098 10.1868 8.17542 10.2625 8.20453L10.4605 8.27441" fill="white"/>
<path d="M10.342 7.42426L10.5167 8.01528C10.54 8.09098 10.4963 8.17542 10.4206 8.20453L10.2227 8.27441" fill="white"/>
<path d="M11.0064 7.95404H10.4503C10.3717 7.95404 10.3047 8.021 10.3047 8.09961V8.33835" fill="white"/>
<path d="M11.0069 7.95404L10.5527 8.31506C10.4886 8.36456 10.4013 8.35 10.3576 8.28304L10.2324 8.09379" fill="white"/>
<path d="M9.67188 7.95415L10.1261 8.31517C10.1901 8.36466 10.2775 8.35011 10.3211 8.28314L10.4463 8.0939" fill="white"/>
<path d="M9.67188 7.95415H10.228C10.3066 7.95415 10.3735 8.02111 10.3735 8.09972V8.33846" fill="white"/>
<path d="M10.7553 8.81304L10.5807 8.22201C10.5574 8.14632 10.4788 8.10556 10.4031 8.13176L10.2051 8.20163" fill="white"/>
<path d="M10.7557 8.81304L10.3015 8.45202C10.2375 8.40252 10.2229 8.30644 10.2695 8.23948L10.3947 8.05023" fill="white"/>
<path d="M9.92773 8.81304L10.3819 8.45202C10.446 8.40252 10.4605 8.30644 10.414 8.23948L10.2888 8.05023" fill="white"/>
<path d="M9.92773 8.81304L10.1024 8.22201C10.1257 8.14632 10.2043 8.10556 10.28 8.13176L10.478 8.20163" fill="white"/>
<path d="M13.1517 7.42426L12.977 8.01528C12.9537 8.09098 12.9974 8.17542 13.0731 8.20453L13.271 8.27441" fill="white"/>
<path d="M13.1526 7.42426L13.3273 8.01528C13.3506 8.09098 13.3069 8.17542 13.2312 8.20453L13.0332 8.27441" fill="white"/>
<path d="M13.8208 7.95415H13.2647C13.1861 7.95415 13.1191 8.02111 13.1191 8.09972V8.33846" fill="white"/>
<path d="M13.8213 7.95415L13.3671 8.31517C13.3031 8.36466 13.2157 8.35011 13.1721 8.28314L13.0469 8.0939" fill="white"/>
<path d="M12.4844 7.95415L12.9386 8.31517C13.0026 8.36466 13.09 8.35011 13.1336 8.28314L13.2588 8.0939" fill="white"/>
<path d="M12.4844 7.95415H13.0405C13.1191 7.95415 13.186 8.02111 13.186 8.09972V8.33846" fill="white"/>
<path d="M13.5659 8.81304L13.3912 8.22201C13.3679 8.14632 13.2893 8.10556 13.2136 8.13176L13.0156 8.20163" fill="white"/>
<path d="M13.5663 8.81304L13.1121 8.45202C13.048 8.40252 13.0335 8.30644 13.08 8.23948L13.2052 8.05023" fill="white"/>
<path d="M12.7383 8.81304L13.1925 8.45202C13.2565 8.40252 13.2711 8.30644 13.2245 8.23948L13.0993 8.05023" fill="white"/>
<path d="M12.7383 8.81304L12.913 8.22201C12.9363 8.14632 13.0149 8.10556 13.0906 8.13176L13.2885 8.20163" fill="white"/>
<path d="M13.1517 4.35266L12.977 4.94369C12.9537 5.01939 12.9974 5.10382 13.0731 5.13294L13.271 5.20281" fill="white"/>
<path d="M13.1526 4.35266L13.3273 4.94369C13.3506 5.01939 13.3069 5.10382 13.2312 5.13294L13.0332 5.20281" fill="white"/>
<path d="M13.8208 4.88255H13.2647C13.1861 4.88255 13.1191 4.94952 13.1191 5.02813V5.26687" fill="white"/>
<path d="M13.8213 4.88255L13.3671 5.24358C13.3031 5.29307 13.2157 5.27851 13.1721 5.21155L13.0469 5.0223" fill="white"/>
<path d="M12.4844 4.88255L12.9386 5.24358C13.0026 5.29307 13.09 5.27851 13.1336 5.21155L13.2588 5.0223" fill="white"/>
<path d="M12.4844 4.88255H13.0405C13.1191 4.88255 13.186 4.94952 13.186 5.02813V5.26687" fill="white"/>
<path d="M13.5659 5.74145L13.3912 5.15042C13.3679 5.07472 13.2893 5.03396 13.2136 5.06016L13.0156 5.13004" fill="white"/>
<path d="M13.5663 5.74144L13.1121 5.38042C13.048 5.33093 13.0335 5.23485 13.08 5.16788L13.2052 4.97864" fill="white"/>
<path d="M12.7383 5.74144L13.1925 5.38042C13.2565 5.33093 13.2711 5.23485 13.2245 5.16788L13.0993 4.97864" fill="white"/>
<path d="M12.7383 5.74145L12.913 5.15042C12.9363 5.07472 13.0149 5.03396 13.0906 5.06016L13.2885 5.13004" fill="white"/>
</svg>
