<svg viewBox="0 0 32 32" fill="none" xmlns="http://www.w3.org/2000/svg">
<path d="M56.9863 0H0.145574C0.0651755 0 0 0.0651755 0 0.145574V31.8544C0 31.9348 0.0651755 32 0.145574 32H56.9863C57.0667 32 57.1318 31.9348 57.1318 31.8544V0.145574C57.1318 0.0651755 57.0667 0 56.9863 0Z" fill="#FFF915"/>
<path d="M56.9834 0H0.151433C0.0710349 0 0.00585938 0.0651755 0.00585938 0.145574V15.8151C0.00585938 15.8955 0.0710349 15.9607 0.151433 15.9607H56.9834C57.0638 15.9607 57.129 15.8955 57.129 15.8151V0.145574C57.129 0.0651755 57.0638 0 56.9834 0Z" fill="#25BBEF"/>
</svg>
