<svg viewBox="0 0 32 32" fill="none" xmlns="http://www.w3.org/2000/svg">
<path d="M58.0839 9.8466H0.145574C0.0651755 9.8466 0 9.91178 0 9.99218V12.17C0 12.2504 0.0651755 12.3155 0.145574 12.3155H58.0839C58.1643 12.3155 58.2295 12.2504 58.2295 12.17V9.99218C58.2295 9.91178 58.1643 9.8466 58.0839 9.8466Z" fill="#DB2E2E"/>
<path d="M58.0839 4.92039H0.145574C0.0651755 4.92039 0 4.98557 0 5.06597V7.24084C0 7.32124 0.0651755 7.38641 0.145574 7.38641H58.0839C58.1643 7.38641 58.2295 7.32124 58.2295 7.24084V5.06597C58.2295 4.98557 58.1643 4.92039 58.0839 4.92039Z" fill="#DB2E2E"/>
<path d="M58.0839 0H0.145574C0.0651755 0 0 0.0651755 0 0.145574V2.32044C0 2.40084 0.0651755 2.46602 0.145574 2.46602H58.0839C58.1643 2.46602 58.2295 2.40084 58.2295 2.32044V0.145574C58.2295 0.0651755 58.1643 0 58.0839 0Z" fill="#DB2E2E"/>
<path d="M58.0839 14.7728H0.145574C0.0651755 14.7728 0 14.838 0 14.9184V17.0962C0 17.1766 0.0651755 17.2417 0.145574 17.2417H58.0839C58.1643 17.2417 58.2295 17.1766 58.2295 17.0962V14.9184C58.2295 14.838 58.1643 14.7728 58.0839 14.7728Z" fill="#DB2E2E"/>
<path d="M58.0839 19.6903H0.145574C0.0651755 19.6903 0 19.7555 0 19.8359V22.0136C0 22.094 0.0651755 22.1592 0.145574 22.1592H58.0839C58.1643 22.1592 58.2295 22.094 58.2295 22.0136V19.8359C58.2295 19.7555 58.1643 19.6903 58.0839 19.6903Z" fill="#DB2E2E"/>
<path d="M58.0839 24.6194H0.145574C0.0651755 24.6194 0 24.6846 0 24.765V26.9399C0 27.0203 0.0651755 27.0854 0.145574 27.0854H58.0839C58.1643 27.0854 58.2295 27.0203 58.2295 26.9399V24.765C58.2295 24.6846 58.1643 24.6194 58.0839 24.6194Z" fill="#DB2E2E"/>
<path d="M58.0839 29.534H0.145574C0.0651755 29.534 0 29.5992 0 29.6796V31.8544C0 31.9348 0.0651755 32 0.145574 32H58.0839C58.1643 32 58.2295 31.9348 58.2295 31.8544V29.6796C58.2295 29.5992 58.1643 29.534 58.0839 29.534Z" fill="#DB2E2E"/>
<path d="M58.0839 7.3835H0.145574C0.0651755 7.3835 0 7.44867 0 7.52907V9.70394C0 9.78434 0.0651755 9.84952 0.145574 9.84952H58.0839C58.1643 9.84952 58.2295 9.78434 58.2295 9.70394V7.52907C58.2295 7.44867 58.1643 7.3835 58.0839 7.3835Z" fill="white"/>
<path d="M58.0839 2.4631H0.145574C0.0651755 2.4631 0 2.52828 0 2.60868V4.78355C0 4.86395 0.0651755 4.92912 0.145574 4.92912H58.0839C58.1643 4.92912 58.2295 4.86395 58.2295 4.78355V2.60868C58.2295 2.52828 58.1643 2.4631 58.0839 2.4631Z" fill="white"/>
<path d="M58.0839 12.3126H0.145574C0.0651755 12.3126 0 12.3778 0 12.4582V14.6331C0 14.7135 0.0651755 14.7786 0.145574 14.7786H58.0839C58.1643 14.7786 58.2295 14.7135 58.2295 14.6331V12.4582C58.2295 12.3778 58.1643 12.3126 58.0839 12.3126Z" fill="white"/>
<path d="M58.0839 17.2272H0.145574C0.0651755 17.2272 0 17.2924 0 17.3728V19.5476C0 19.628 0.0651755 19.6932 0.145574 19.6932H58.0839C58.1643 19.6932 58.2295 19.628 58.2295 19.5476V17.3728C58.2295 17.2924 58.1643 17.2272 58.0839 17.2272Z" fill="white"/>
<path d="M58.0839 22.1563H0.145574C0.0651755 22.1563 0 22.2215 0 22.3019V24.4768C0 24.5572 0.0651755 24.6223 0.145574 24.6223H58.0839C58.1643 24.6223 58.2295 24.5572 58.2295 24.4768V22.3019C58.2295 22.2215 58.1643 22.1563 58.0839 22.1563Z" fill="white"/>
<path d="M58.0839 27.0796H0.145574C0.0651755 27.0796 0 27.1448 0 27.2252V29.4C0 29.4804 0.0651755 29.5456 0.145574 29.5456H58.0839C58.1643 29.5456 58.2295 29.4804 58.2295 29.4V27.2252C58.2295 27.1448 58.1643 27.0796 58.0839 27.0796Z" fill="white"/>
<path d="M21.6293 0.0786133H0.145574C0.0651755 0.0786133 0 0.143789 0 0.224187V14.8369C0 14.9173 0.0651755 14.9824 0.145574 14.9824H21.6293C21.7097 14.9824 21.7749 14.9173 21.7749 14.8369V0.224187C21.7749 0.143789 21.7097 0.0786133 21.6293 0.0786133Z" fill="#2E4593"/>
<path d="M18.1927 3.03675C18.1927 3.03675 18.2219 3.09789 18.251 3.17359L18.3732 3.48221C18.4024 3.5579 18.3732 3.58119 18.3063 3.53752L17.9977 3.33372C17.9307 3.29005 17.8754 3.2522 17.8754 3.2522C17.8754 3.2522 17.8201 3.29005 17.7531 3.33372L17.4474 3.53461C17.3804 3.57828 17.3513 3.55499 17.3804 3.47929L17.5027 3.17068C17.5318 3.09498 17.558 3.03384 17.5609 3.03384C17.5609 3.03384 17.5027 2.9989 17.4358 2.95814L17.1184 2.76889C17.0485 2.72813 17.0602 2.6932 17.1388 2.6932H17.5289C17.6075 2.6932 17.6949 2.63205 17.7182 2.55345L17.8172 2.25065C17.8404 2.17495 17.8841 2.17495 17.9103 2.25065L18.021 2.55927C18.0472 2.63497 18.0705 2.69611 18.0705 2.69611H18.6149C18.6935 2.69611 18.7052 2.72813 18.6353 2.77181L18.315 2.96105C18.2451 3.00181 18.1898 3.03675 18.1898 3.03675H18.1927Z" fill="white"/>
<path d="M18.1927 6.05013C18.1927 6.05013 18.2219 6.11127 18.251 6.18697L18.3732 6.49268C18.4024 6.56837 18.3732 6.59167 18.3063 6.54799L17.9977 6.3471C17.9307 6.30343 17.8754 6.26558 17.8754 6.26558C17.8754 6.26558 17.8201 6.30343 17.7531 6.3471L17.4474 6.54799C17.3804 6.59167 17.3513 6.56837 17.3804 6.49268L17.5027 6.18697C17.5318 6.11127 17.558 6.05013 17.5609 6.05013C17.5609 6.05013 17.5027 6.01519 17.4358 5.97443L17.1184 5.78228C17.0485 5.74152 17.0602 5.70658 17.1388 5.70658H17.5289C17.6075 5.70658 17.6949 5.64544 17.7182 5.56683L17.8172 5.26403C17.8404 5.18834 17.8841 5.18834 17.9103 5.26403L18.021 5.57265C18.0472 5.64835 18.0705 5.70949 18.0705 5.7124C18.0705 5.7124 18.1374 5.7124 18.216 5.7124H18.6149C18.6935 5.7124 18.7052 5.74734 18.6353 5.7881L18.315 5.98026C18.2451 6.02102 18.1898 6.05595 18.1898 6.05595L18.1927 6.05013Z" fill="white"/>
<path d="M18.1927 9.06058C18.1927 9.06058 18.2219 9.12463 18.251 9.19742L18.3732 9.50312C18.4024 9.57882 18.3732 9.60212 18.3063 9.55844L17.9977 9.35464C17.9307 9.31097 17.8754 9.27312 17.8754 9.27312C17.8754 9.27312 17.8201 9.31097 17.7531 9.35464L17.4474 9.55553C17.3804 9.5992 17.3513 9.57591 17.3804 9.50021L17.5027 9.19451C17.5318 9.11881 17.558 9.05767 17.5609 9.05767V9.05476C17.5609 9.05476 17.5027 9.01982 17.4358 8.97906L17.1184 8.78981C17.0485 8.74905 17.0602 8.71412 17.1388 8.71412H17.5289C17.6075 8.71412 17.6949 8.65297 17.7182 8.57437L17.8172 8.27157C17.8404 8.19587 17.8841 8.19587 17.9103 8.27157L18.021 8.58019C18.0472 8.65589 18.0705 8.71703 18.0705 8.71703H18.6149C18.6935 8.71703 18.7052 8.74905 18.6353 8.79273L18.315 8.98197C18.2451 9.02273 18.1898 9.05767 18.1898 9.05767C18.1898 9.05767 18.1898 9.05767 18.1898 9.06058H18.1927Z" fill="white"/>
<path d="M18.1927 12.0711C18.1927 12.0711 18.2219 12.1322 18.251 12.2079L18.3732 12.5136C18.4024 12.5893 18.3732 12.6126 18.3063 12.5689L17.9977 12.368C17.9307 12.3243 17.8754 12.2865 17.8754 12.2865C17.8754 12.2865 17.8201 12.3243 17.7531 12.368L17.4474 12.5689C17.3804 12.6126 17.3513 12.5893 17.3804 12.5136L17.5027 12.2079C17.5318 12.1322 17.558 12.0711 17.5609 12.0711C17.5609 12.0711 17.5027 12.0361 17.4358 11.9954L17.1184 11.8032C17.0485 11.7624 17.0602 11.7275 17.1388 11.7275H17.5289C17.6075 11.7275 17.6949 11.6664 17.7182 11.5877L17.8172 11.285C17.8404 11.2093 17.8841 11.2093 17.9103 11.285L18.021 11.5936C18.0472 11.6693 18.0705 11.7304 18.0705 11.7333C18.0705 11.7333 18.1374 11.7333 18.216 11.7333H18.6149C18.6935 11.7333 18.7052 11.7683 18.6353 11.809L18.315 12.0012C18.2451 12.0419 18.1898 12.0769 18.1898 12.0769L18.1927 12.0711Z" fill="white"/>
<path d="M14.5921 3.03666C14.5921 3.03666 14.6212 3.0978 14.6504 3.1735L14.7726 3.48212C14.8018 3.55781 14.7726 3.58111 14.7057 3.53743L14.3971 3.33363C14.3301 3.28996 14.2748 3.25211 14.2748 3.25211C14.2748 3.25211 14.2195 3.28996 14.1525 3.33363L13.8439 3.53743C13.7769 3.58111 13.7478 3.55781 13.7769 3.48212L13.9021 3.1735C13.9312 3.0978 13.9574 3.03666 13.9574 3.03666C13.9574 3.03666 13.8992 3.00172 13.8322 2.96096L13.5149 2.77172C13.445 2.73096 13.4567 2.69602 13.5353 2.69602H13.9254C14.0069 2.69602 14.0914 2.63488 14.1147 2.55627L14.2136 2.25347C14.2369 2.17778 14.2806 2.17778 14.3068 2.25347L14.4174 2.56209C14.4436 2.63779 14.4669 2.69893 14.4669 2.69893H15.0114C15.09 2.69893 15.1016 2.73387 15.0318 2.77463L14.7144 2.96387C14.6445 3.00463 14.5892 3.03957 14.5892 3.03957L14.5921 3.03666Z" fill="white"/>
<path d="M14.5921 6.05004C14.5921 6.05004 14.6212 6.11118 14.6504 6.18688L14.7726 6.49258C14.8018 6.56828 14.7726 6.59157 14.7057 6.5479L14.3971 6.34701C14.3301 6.30334 14.2748 6.26549 14.2748 6.26549C14.2748 6.26549 14.2195 6.30334 14.1525 6.34701L13.8439 6.5479C13.7769 6.59157 13.7478 6.56537 13.7769 6.49258L13.8992 6.18688C13.9283 6.11118 13.9545 6.05004 13.9574 6.05004C13.9574 6.05004 13.8992 6.0151 13.8322 5.97434L13.5149 5.78218C13.445 5.74142 13.4567 5.70649 13.5353 5.70649H13.9254C14.0069 5.70649 14.0914 5.64535 14.1147 5.56674L14.2136 5.26394C14.2369 5.18824 14.2806 5.18824 14.3068 5.26394L14.4174 5.57256C14.4436 5.64826 14.4669 5.7094 14.4669 5.71231C14.4669 5.71231 14.5339 5.71231 14.6154 5.71231H15.0114C15.09 5.71231 15.1016 5.74725 15.0318 5.78801L14.7144 5.98016C14.6445 6.02093 14.5892 6.05586 14.5892 6.05586L14.5921 6.05004Z" fill="white"/>
<path d="M14.5921 9.06049C14.5921 9.06049 14.6212 9.12454 14.6504 9.19733L14.7726 9.50304C14.8018 9.57873 14.7726 9.60203 14.7057 9.55835L14.3971 9.35455C14.3301 9.31088 14.2748 9.27303 14.2748 9.27303C14.2748 9.27303 14.2195 9.31088 14.1525 9.35455L13.8439 9.55835C13.7769 9.60203 13.7478 9.57873 13.7769 9.50304L13.8992 9.19733C13.9283 9.12454 13.9545 9.06049 13.9574 9.06049V9.05758C13.9574 9.05758 13.8992 9.02264 13.8322 8.98188L13.5149 8.79264C13.445 8.75188 13.4567 8.71694 13.5353 8.71694H13.9254C14.0069 8.71694 14.0914 8.6558 14.1147 8.57719L14.2136 8.27439C14.2369 8.1987 14.2806 8.1987 14.3068 8.27439L14.4174 8.58301C14.4436 8.65871 14.4669 8.71985 14.4669 8.71985H15.0114C15.09 8.71985 15.1016 8.75479 15.0318 8.79555L14.7144 8.98479C14.6445 9.02555 14.5892 9.06049 14.5892 9.06049C14.5892 9.06049 14.5892 9.06049 14.5892 9.0634L14.5921 9.06049Z" fill="white"/>
<path d="M14.5921 12.071C14.5921 12.071 14.6212 12.1321 14.6504 12.2078L14.7726 12.5135C14.8018 12.5892 14.7726 12.6125 14.7057 12.5688L14.3971 12.3679C14.3301 12.3243 14.2748 12.2864 14.2748 12.2864C14.2748 12.2864 14.2195 12.3243 14.1525 12.3679L13.8439 12.5688C13.7769 12.6125 13.7478 12.5863 13.7769 12.5135L13.8992 12.2078C13.9283 12.135 13.9545 12.071 13.9574 12.071C13.9574 12.071 13.8992 12.036 13.8322 11.9953L13.5149 11.8031C13.445 11.7623 13.4567 11.7274 13.5353 11.7274H13.9254C14.0069 11.7274 14.0914 11.6663 14.1147 11.5877L14.2136 11.2849C14.2369 11.2092 14.2806 11.2092 14.3068 11.2849L14.4174 11.5935C14.4436 11.6692 14.4669 11.7303 14.4669 11.7332C14.4669 11.7332 14.5339 11.7332 14.6154 11.7332H15.0114C15.09 11.7332 15.1016 11.7682 15.0318 11.8089L14.7144 12.0011C14.6445 12.0418 14.5892 12.0768 14.5892 12.0768L14.5921 12.071Z" fill="white"/>
<path d="M10.9906 3.03677C10.9906 3.03677 11.0197 3.09791 11.0488 3.17361L11.174 3.48222C11.2031 3.55792 11.174 3.58121 11.107 3.53754L10.7984 3.33374C10.7314 3.29007 10.6761 3.25222 10.6761 3.25222C10.6761 3.25222 10.6208 3.29007 10.5538 3.33374L10.2452 3.53754C10.1783 3.58121 10.1492 3.55792 10.1783 3.48222L10.3006 3.17361C10.3297 3.09791 10.3559 3.03677 10.3588 3.03677C10.3559 3.03677 10.3006 3.00183 10.2307 2.96107L9.91332 2.77182C9.84345 2.73106 9.8551 2.69613 9.9337 2.69613H10.3268C10.4054 2.69613 10.4927 2.63498 10.516 2.55637L10.6121 2.25358C10.6354 2.17788 10.679 2.17788 10.7052 2.25358L10.8188 2.5622C10.845 2.6379 10.8683 2.69904 10.8683 2.69904H11.4127C11.4943 2.69904 11.503 2.73397 11.4331 2.77474L11.1129 2.96398C11.043 3.00474 10.9877 3.03968 10.9877 3.03968L10.9906 3.03677Z" fill="white"/>
<path d="M10.9915 6.05015C10.9915 6.05015 11.0206 6.11129 11.0498 6.18699L11.172 6.49269C11.2012 6.56839 11.172 6.59168 11.1051 6.54801L10.7965 6.34712C10.7295 6.30344 10.6742 6.2656 10.6742 6.2656C10.6742 6.2656 10.6189 6.30344 10.5519 6.34712L10.2433 6.54801C10.1763 6.59168 10.1443 6.56548 10.1763 6.49269L10.2986 6.18699C10.3277 6.11129 10.3539 6.05015 10.3568 6.05015C10.3597 6.05015 10.3597 6.05015 10.3568 6.05015C10.3539 6.05015 10.2986 6.01521 10.2287 5.97445L9.91137 5.78229C9.8415 5.74153 9.85314 5.70659 9.93175 5.70659H10.3248C10.4034 5.70659 10.4908 5.64545 10.514 5.56684L10.6101 5.26405C10.6334 5.18835 10.6771 5.18835 10.7033 5.26405L10.8168 5.57267C10.843 5.64836 10.8663 5.7095 10.8663 5.7095C10.8663 5.7095 10.9333 5.7095 11.0148 5.7095H11.4108C11.4923 5.7095 11.501 5.74444 11.4312 5.7852L11.1109 5.97736C11.041 6.01812 10.9857 6.05306 10.9857 6.05306L10.9915 6.05015Z" fill="white"/>
<path d="M10.9915 9.0606C10.9915 9.0606 11.0206 9.12465 11.0498 9.19744L11.172 9.50314C11.2012 9.57593 11.172 9.60213 11.1051 9.55846L10.7965 9.35466C10.7295 9.31099 10.6742 9.27314 10.6742 9.27314C10.6742 9.27314 10.6189 9.31099 10.5519 9.35466L10.2433 9.55846C10.1763 9.60213 10.1472 9.57884 10.1763 9.50314L10.2986 9.19744C10.3277 9.12174 10.3539 9.0606 10.3568 9.0606C10.3568 9.0606 10.3597 9.05769 10.3568 9.05769C10.3539 9.05769 10.2986 9.02275 10.2287 8.98199L9.91137 8.79274C9.8415 8.75198 9.85314 8.71705 9.93175 8.71705H10.3248C10.4034 8.71705 10.4908 8.6559 10.514 8.57729L10.6101 8.2745C10.6334 8.1988 10.6771 8.1988 10.7033 8.2745L10.8168 8.58312C10.843 8.65882 10.8663 8.71996 10.8663 8.71996H11.4108C11.4923 8.71996 11.501 8.75489 11.4312 8.79565L11.1109 8.9849C11.041 9.02566 10.9857 9.0606 10.9857 9.0606C10.9857 9.0606 10.9857 9.0606 10.9857 9.06351L10.9915 9.0606Z" fill="white"/>
<path d="M10.9915 12.0711C10.9915 12.0711 11.0206 12.1322 11.0498 12.2079L11.172 12.5136C11.2012 12.5893 11.172 12.6126 11.1051 12.5689L10.7965 12.368C10.7295 12.3244 10.6742 12.2865 10.6742 12.2865C10.6742 12.2865 10.6189 12.3244 10.5519 12.368L10.2433 12.5689C10.1763 12.6126 10.1443 12.5864 10.1763 12.5136L10.2986 12.2079C10.3277 12.1322 10.3539 12.0711 10.3568 12.0711C10.3539 12.0711 10.2986 12.0361 10.2287 11.9954L9.91137 11.8032C9.8415 11.7625 9.85314 11.7275 9.93175 11.7275H10.3248C10.4034 11.7275 10.4908 11.6664 10.514 11.5878L10.6101 11.285C10.6334 11.2093 10.6771 11.2093 10.7033 11.285L10.8168 11.5936C10.843 11.6693 10.8663 11.7304 10.8663 11.7304C10.8663 11.7304 10.9333 11.7304 11.0148 11.7304H11.4108C11.4923 11.7304 11.501 11.7654 11.4312 11.8061L11.1109 11.9983C11.041 12.039 10.9857 12.074 10.9857 12.074L10.9915 12.0711Z" fill="white"/>
<path d="M7.44955 3.03677C7.44955 3.03677 7.47576 3.09791 7.50778 3.17361L7.63007 3.48222C7.65918 3.55792 7.63007 3.58121 7.5631 3.53754L7.25449 3.33374C7.18752 3.29007 7.1322 3.25222 7.1322 3.25222C7.1322 3.25222 7.07689 3.29007 7.00992 3.33374L6.70131 3.53754C6.63434 3.58121 6.60523 3.55792 6.63434 3.48222L6.75662 3.17361C6.78574 3.09791 6.81194 3.03677 6.81485 3.03677C6.81485 3.03677 6.75662 3.00183 6.68966 2.96107L6.37231 2.77182C6.30243 2.73106 6.31408 2.69613 6.39269 2.69613H6.78574C6.86726 2.69613 6.95169 2.63498 6.97498 2.55637L7.07106 2.25358C7.09435 2.17788 7.13803 2.17788 7.16423 2.25358L7.27778 2.5622C7.30398 2.6379 7.32727 2.69904 7.32727 2.69904H7.87172C7.95324 2.69904 7.96197 2.73397 7.8921 2.77474L7.57475 2.96398C7.50487 3.00474 7.44955 3.03968 7.44955 3.03968V3.03677Z" fill="white"/>
<path d="M7.44955 6.05015C7.44955 6.05015 7.47576 6.11129 7.50778 6.18699L7.63007 6.49269C7.65918 6.56839 7.63007 6.59168 7.5631 6.54801L7.25449 6.34712C7.18752 6.30344 7.1322 6.2656 7.1322 6.2656C7.1322 6.2656 7.07689 6.30344 7.00992 6.34712L6.70131 6.54801C6.63434 6.59168 6.60232 6.56548 6.63434 6.49269L6.75662 6.18699C6.78574 6.11129 6.81194 6.05015 6.81485 6.05015C6.81485 6.05015 6.75662 6.01521 6.68966 5.97445L6.37231 5.78229C6.30243 5.74153 6.31408 5.70659 6.39269 5.70659H6.78574C6.86726 5.70659 6.95169 5.64545 6.97498 5.56684L7.07106 5.26405C7.09435 5.18835 7.13803 5.18835 7.16423 5.26405L7.27778 5.57267C7.30398 5.64836 7.32727 5.7095 7.32727 5.7095C7.32727 5.7095 7.39424 5.7095 7.47576 5.7095H7.87463C7.95615 5.7095 7.96488 5.74444 7.89501 5.7852L7.57766 5.97736C7.50778 6.01812 7.45247 6.05306 7.45247 6.05306L7.44955 6.05015Z" fill="white"/>
<path d="M7.44955 9.0606C7.44955 9.0606 7.47576 9.12465 7.50778 9.19744L7.63007 9.50314C7.65918 9.57884 7.63007 9.60213 7.5631 9.55846L7.25449 9.35466C7.18752 9.31099 7.1322 9.27314 7.1322 9.27314C7.1322 9.27314 7.07689 9.31099 7.00992 9.35466L6.70131 9.55846C6.63434 9.60213 6.60523 9.57884 6.63434 9.50314L6.75662 9.19744C6.78574 9.12174 6.81194 9.0606 6.81485 9.0606V9.05769C6.81485 9.05769 6.75662 9.02275 6.68966 8.98199L6.37231 8.79274C6.30243 8.75198 6.31408 8.71705 6.39269 8.71705H6.78574C6.86726 8.71705 6.95169 8.6559 6.97498 8.57729L7.07106 8.2745C7.09435 8.1988 7.13803 8.1988 7.16423 8.2745L7.27778 8.58312C7.30398 8.65882 7.32727 8.71996 7.32727 8.71996H7.87172C7.95324 8.71996 7.96197 8.75489 7.8921 8.79565L7.57475 8.9849C7.50487 9.02566 7.44955 9.0606 7.44955 9.0606C7.44955 9.0606 7.44955 9.0606 7.44955 9.06351V9.0606Z" fill="white"/>
<path d="M7.44955 12.0711C7.44955 12.0711 7.47576 12.1322 7.50778 12.2079L7.63007 12.5136C7.65918 12.5893 7.63007 12.6126 7.5631 12.5689L7.25449 12.368C7.18752 12.3244 7.1322 12.2865 7.1322 12.2865C7.1322 12.2865 7.07689 12.3244 7.00992 12.368L6.70131 12.5689C6.63434 12.6126 6.60232 12.5864 6.63434 12.5136L6.75662 12.2079C6.78574 12.1322 6.81194 12.0711 6.81485 12.0711C6.81485 12.0711 6.75662 12.0361 6.68966 11.9954L6.37231 11.8032C6.30243 11.7625 6.31408 11.7275 6.39269 11.7275H6.78574C6.86726 11.7275 6.95169 11.6664 6.97498 11.5878L7.07106 11.285C7.09435 11.2093 7.13803 11.2093 7.16423 11.285L7.27778 11.5936C7.30398 11.6693 7.32727 11.7304 7.32727 11.7304C7.32727 11.7304 7.39424 11.7304 7.47576 11.7304H7.87463C7.95615 11.7304 7.96488 11.7654 7.89501 11.8061L7.57766 11.9983C7.50778 12.039 7.45247 12.074 7.45247 12.074L7.44955 12.0711Z" fill="white"/>
<path d="M3.90367 3.03675C3.90367 3.03675 3.92988 3.09789 3.9619 3.17359L4.08419 3.48221C4.1133 3.5579 4.08419 3.58119 4.01722 3.53752L3.7086 3.33372C3.64164 3.29005 3.58632 3.2522 3.58632 3.2522C3.58632 3.2522 3.53101 3.29005 3.46404 3.33372L3.15834 3.53461C3.09137 3.57828 3.06226 3.55499 3.09137 3.47929L3.21365 3.17068C3.24277 3.09498 3.26897 3.03384 3.27188 3.03384C3.27188 3.03384 3.21365 2.9989 3.14669 2.95814L2.82934 2.76889C2.75946 2.72813 2.77111 2.6932 2.84972 2.6932H3.24277C3.32429 2.6932 3.40872 2.63205 3.43202 2.55345L3.52809 2.25065C3.55139 2.17495 3.59506 2.17495 3.62126 2.25065L3.73481 2.55927C3.76101 2.63497 3.85127 2.69611 3.92988 2.69611H4.32875C4.40736 2.69611 4.419 2.72813 4.34913 2.77181L4.02887 2.96105C3.95899 3.00181 3.90367 3.03675 3.90367 3.03675Z" fill="white"/>
<path d="M3.90367 6.05013C3.90367 6.05013 3.93279 6.11127 3.9619 6.18697L4.08419 6.49268C4.1133 6.56837 4.08419 6.59167 4.01722 6.54799L3.7086 6.3471C3.64164 6.30343 3.58632 6.26558 3.58632 6.26558C3.58632 6.26558 3.53101 6.30343 3.46404 6.3471L3.15834 6.54799C3.09137 6.59167 3.06226 6.56837 3.09137 6.49268L3.21365 6.18697C3.24277 6.11127 3.26897 6.05013 3.27188 6.05013C3.27188 6.05013 3.21365 6.01519 3.14669 5.97443L2.82934 5.78228C2.75946 5.74152 2.77111 5.70658 2.84972 5.70658H3.24277C3.32429 5.70658 3.40872 5.64544 3.43202 5.56683L3.52809 5.26403C3.55139 5.18834 3.59506 5.18834 3.62126 5.26403L3.73481 5.57265C3.76101 5.64835 3.7843 5.70949 3.7843 5.70949C3.7843 5.70949 3.84836 5.70949 3.92988 5.70949H4.32875C4.40736 5.70949 4.419 5.74443 4.34913 5.78519L4.02887 5.97734C3.95899 6.01811 3.90367 6.05304 3.90367 6.05304V6.05013Z" fill="white"/>
<path d="M3.90367 9.06058C3.90367 9.06058 3.93279 9.12464 3.9619 9.19742L4.08419 9.50313C4.1133 9.57883 4.08419 9.60212 4.01722 9.55845L3.7086 9.35464C3.64164 9.31097 3.58632 9.27312 3.58632 9.27312C3.58632 9.27312 3.53101 9.31097 3.46404 9.35464L3.15834 9.55845C3.09137 9.60212 3.06226 9.57883 3.09137 9.50313L3.21365 9.19742C3.24277 9.12172 3.26897 9.06058 3.27188 9.06058V9.05767C3.27188 9.05767 3.21365 9.02273 3.14669 8.98197L2.82934 8.79273C2.75946 8.75197 2.77111 8.71703 2.84972 8.71703H3.24277C3.32429 8.71703 3.40872 8.65589 3.43202 8.57728L3.52809 8.27449C3.55139 8.19879 3.59506 8.19879 3.62126 8.27449L3.73481 8.5831C3.76101 8.6588 3.85127 8.71994 3.92988 8.71994H4.32875C4.40736 8.71994 4.419 8.75197 4.34913 8.79564L4.02887 8.98489C3.95899 9.02565 3.90367 9.06058 3.90367 9.06058C3.90367 9.06058 3.90367 9.06058 3.90367 9.06349V9.06058Z" fill="white"/>
<path d="M3.90367 12.0711C3.90367 12.0711 3.93279 12.1322 3.9619 12.2079L4.08419 12.5136C4.1133 12.5893 4.08419 12.6126 4.01722 12.5689L3.7086 12.368C3.64164 12.3243 3.58632 12.2865 3.58632 12.2865C3.58632 12.2865 3.53101 12.3243 3.46404 12.368L3.15834 12.5689C3.09137 12.6126 3.06226 12.5893 3.09137 12.5136L3.21365 12.2079C3.24277 12.1322 3.26897 12.0711 3.27188 12.0711C3.27188 12.0711 3.21365 12.0361 3.14669 11.9954L2.82934 11.8032C2.75946 11.7624 2.77111 11.7275 2.84972 11.7275H3.24277C3.32429 11.7275 3.40872 11.6664 3.43202 11.5877L3.52809 11.285C3.55139 11.2093 3.59506 11.2093 3.62126 11.285L3.73481 11.5936C3.76101 11.6693 3.7843 11.7304 3.7843 11.7304C3.7843 11.7304 3.84836 11.7304 3.92988 11.7304H4.32875C4.40736 11.7304 4.419 11.7653 4.34913 11.8061L4.02887 11.9983C3.95899 12.039 3.90367 12.074 3.90367 12.074V12.0711Z" fill="white"/>
<path d="M19.9407 4.54191C19.9407 4.54191 19.967 4.60596 19.999 4.67875L20.1213 4.98445C20.1504 5.06015 20.1213 5.08344 20.0543 5.03977L19.7457 4.83888C19.6787 4.79521 19.6234 4.75736 19.6234 4.75736C19.6234 4.75736 19.5681 4.79521 19.5011 4.83888L19.1925 5.03977C19.1255 5.08344 19.0935 5.05724 19.1255 4.98445L19.2478 4.67875C19.2769 4.60305 19.3031 4.54191 19.306 4.54191C19.306 4.54191 19.309 4.539 19.306 4.539C19.3031 4.539 19.2478 4.50406 19.1779 4.4633L18.8606 4.27405C18.7907 4.23329 18.8024 4.19835 18.881 4.19835H19.274C19.3526 4.19835 19.44 4.13721 19.4633 4.0586L19.5593 3.75581C19.5826 3.68011 19.6263 3.68011 19.6525 3.75581L19.7631 4.06443C19.7893 4.14012 19.8126 4.20126 19.8126 4.20126C19.8126 4.20126 19.8796 4.20126 19.9582 4.20126H20.3571C20.4357 4.20126 20.4473 4.2362 20.3775 4.27696L20.0572 4.46621C19.9873 4.50697 19.932 4.54191 19.932 4.54191C19.932 4.54191 19.932 4.54191 19.932 4.54482L19.9407 4.54191Z" fill="white"/>
<path d="M19.9398 7.55237C19.9398 7.55237 19.966 7.61643 19.998 7.68921L20.1203 7.99492C20.1494 8.07062 20.1203 8.09391 20.0533 8.05024L19.7447 7.84643C19.6778 7.80276 19.5671 7.80276 19.5031 7.84643L19.1945 8.05024C19.1275 8.09391 19.0984 8.07062 19.1275 7.99492L19.2498 7.68921C19.2789 7.61352 19.3051 7.55237 19.308 7.55237C19.308 7.55237 19.3109 7.54946 19.308 7.54946C19.3051 7.54946 19.2498 7.51453 19.1799 7.47376L18.8625 7.28452C18.7927 7.24376 18.8043 7.20882 18.8829 7.20882H19.276C19.3546 7.20882 19.4419 7.14768 19.4652 7.06907L19.5613 6.76628C19.5846 6.69058 19.6283 6.69058 19.6545 6.76628L19.7651 7.07489C19.7913 7.15059 19.8146 7.21173 19.8146 7.21173H20.359C20.4376 7.21173 20.4493 7.24667 20.3794 7.28743L20.0592 7.47668C19.9893 7.51744 19.934 7.55237 19.934 7.55237C19.934 7.55237 19.934 7.55237 19.934 7.55529L19.9398 7.55237Z" fill="white"/>
<path d="M19.9407 10.5657C19.9407 10.5657 19.967 10.6269 19.999 10.7026L20.1213 11.0112C20.1504 11.0869 20.1213 11.1102 20.0543 11.0665L19.7457 10.8627C19.6787 10.819 19.6234 10.7812 19.6234 10.7812C19.6234 10.7812 19.5681 10.819 19.5011 10.8627L19.1925 11.0665C19.1255 11.1102 19.0964 11.0869 19.1255 11.0112L19.2478 10.7026C19.2769 10.6269 19.3031 10.5657 19.306 10.5657C19.3031 10.5657 19.2478 10.5308 19.1779 10.49L18.8606 10.2979C18.7907 10.2571 18.8024 10.2222 18.881 10.2222H19.274C19.3526 10.2222 19.44 10.161 19.4633 10.0854L19.5593 9.78256C19.5826 9.70686 19.6263 9.70686 19.6525 9.78256L19.7631 10.0883C19.7893 10.164 19.8126 10.2251 19.8126 10.228C19.8126 10.228 19.8796 10.228 19.9582 10.228H20.3571C20.4357 10.228 20.4473 10.26 20.3775 10.3008L20.0572 10.493C19.9873 10.5337 19.932 10.5687 19.932 10.5687L19.9407 10.5657Z" fill="white"/>
<path d="M19.9407 13.582C19.9407 13.582 19.967 13.6432 19.999 13.7189L20.1213 14.0275C20.1504 14.1032 20.1213 14.1265 20.0543 14.0828L19.7457 13.879C19.6787 13.8353 19.6234 13.7975 19.6234 13.7975C19.6234 13.7975 19.5681 13.8353 19.5011 13.879L19.1925 14.0828C19.1255 14.1265 19.0964 14.1032 19.1255 14.0275L19.2478 13.7189C19.2769 13.6432 19.3031 13.582 19.306 13.582C19.3031 13.582 19.2478 13.5471 19.1779 13.5063L18.8606 13.3171C18.7907 13.2763 18.8024 13.2414 18.881 13.2414H19.274C19.3526 13.2414 19.44 13.1803 19.4633 13.1016L19.5593 12.7989C19.5826 12.7232 19.6263 12.7232 19.6525 12.7989L19.7631 13.1075C19.7893 13.1832 19.8126 13.2443 19.8126 13.2472C19.8126 13.2472 19.8796 13.2472 19.9582 13.2472H20.3571C20.4357 13.2472 20.4473 13.2822 20.3775 13.3229L20.0572 13.5122C19.9873 13.5529 19.932 13.5879 19.932 13.5879L19.9407 13.582Z" fill="white"/>
<path d="M19.9407 1.5431C19.9407 1.5431 19.967 1.60715 19.999 1.67994L20.1213 1.98564C20.1504 2.06134 20.1213 2.08463 20.0543 2.04096L19.7457 1.84007C19.6787 1.7964 19.6234 1.75855 19.6234 1.75855C19.6234 1.75855 19.5681 1.7964 19.5011 1.84007L19.1925 2.04096C19.1255 2.08463 19.0935 2.05843 19.1255 1.98564L19.2478 1.67994C19.2769 1.60424 19.3031 1.5431 19.306 1.5431C19.306 1.5431 19.309 1.54019 19.306 1.54019C19.3031 1.54019 19.2478 1.50525 19.1779 1.46449L18.8606 1.27524C18.7907 1.23448 18.8024 1.19954 18.881 1.19954H19.274C19.3526 1.19954 19.44 1.1384 19.4633 1.05979L19.5593 0.757C19.5826 0.681301 19.6263 0.681301 19.6525 0.757L19.7631 1.06562C19.7893 1.14131 19.8126 1.20245 19.8126 1.20537C19.8126 1.20537 19.8796 1.20537 19.9582 1.20537H20.3571C20.4357 1.20537 20.4473 1.2403 20.3775 1.28106L20.0572 1.47031C19.9873 1.51107 19.932 1.54601 19.932 1.54601C19.932 1.54601 19.932 1.54601 19.932 1.54892L19.9407 1.5431Z" fill="white"/>
<path d="M16.4212 4.54191C16.4212 4.54191 16.4474 4.60596 16.4765 4.67875L16.5988 4.98445C16.6279 5.06015 16.5988 5.08344 16.5319 5.03977L16.2232 4.83888C16.1563 4.79521 16.101 4.75736 16.101 4.75736C16.101 4.75736 16.0456 4.79521 15.9787 4.83888L15.6701 5.03977C15.6031 5.08344 15.5711 5.05724 15.6031 4.98445L15.7254 4.67875C15.7545 4.60305 15.7807 4.54191 15.7836 4.54191V4.539C15.7836 4.539 15.7254 4.50406 15.6584 4.4633L15.3411 4.27405C15.2712 4.23329 15.2828 4.19835 15.3614 4.19835H15.7545C15.8331 4.19835 15.9204 4.13721 15.9437 4.0586L16.0398 3.75581C16.0631 3.68011 16.1068 3.68011 16.133 3.75581L16.2436 4.06443C16.2698 4.14012 16.2931 4.20126 16.2931 4.20126C16.2931 4.20126 16.3601 4.20126 16.4387 4.20126H16.8376C16.9162 4.20126 16.9278 4.2362 16.8579 4.27696L16.5406 4.46621C16.4707 4.50697 16.4154 4.54191 16.4154 4.54191C16.4154 4.54191 16.4154 4.54191 16.4154 4.54482L16.4212 4.54191Z" fill="white"/>
<path d="M16.4212 7.55237C16.4212 7.55237 16.4474 7.61643 16.4765 7.68921L16.5988 7.99492C16.6279 8.07062 16.5988 8.09391 16.5319 8.05024L16.2232 7.84643C16.1563 7.80276 16.0456 7.80276 15.9787 7.84643L15.6701 8.05024C15.6031 8.09391 15.574 8.07062 15.6031 7.99492L15.7254 7.68921C15.7545 7.61352 15.7807 7.55237 15.7836 7.55237V7.54946C15.7836 7.54946 15.7254 7.51453 15.6584 7.47376L15.3411 7.28452C15.2712 7.24376 15.2828 7.20882 15.3614 7.20882H15.7545C15.8331 7.20882 15.9204 7.14768 15.9437 7.06907L16.0398 6.76628C16.0631 6.69058 16.1068 6.69058 16.133 6.76628L16.2436 7.07489C16.2698 7.15059 16.2931 7.21173 16.2931 7.21173H16.8376C16.9162 7.21173 16.9278 7.24667 16.8579 7.28743L16.5406 7.47668C16.4707 7.51744 16.4154 7.55237 16.4154 7.55237C16.4154 7.55237 16.4154 7.55237 16.4154 7.55529L16.4212 7.55237Z" fill="white"/>
<path d="M16.4212 10.5657C16.4212 10.5657 16.4474 10.6269 16.4765 10.7026L16.5988 11.0112C16.6279 11.0869 16.5988 11.1102 16.5319 11.0665L16.2232 10.8627C16.1563 10.819 16.101 10.7812 16.101 10.7812C16.101 10.7812 16.0456 10.819 15.9787 10.8627L15.6701 11.0665C15.6031 11.1102 15.574 11.0869 15.6031 11.0112L15.7254 10.7026C15.7545 10.6269 15.7807 10.5657 15.7836 10.5657C15.7836 10.5657 15.7254 10.5308 15.6584 10.49L15.3411 10.2979C15.2712 10.2571 15.2828 10.2222 15.3614 10.2222H15.7545C15.8331 10.2222 15.9204 10.161 15.9437 10.0854L16.0398 9.78256C16.0631 9.70686 16.1068 9.70686 16.133 9.78256L16.2436 10.0883C16.2698 10.164 16.2931 10.2251 16.2931 10.228C16.2931 10.228 16.3601 10.228 16.4387 10.228H16.8376C16.9162 10.228 16.9278 10.26 16.8579 10.3008L16.5406 10.493C16.4707 10.5337 16.4154 10.5687 16.4154 10.5687L16.4212 10.5657Z" fill="white"/>
<path d="M16.4212 13.582C16.4212 13.582 16.4474 13.6432 16.4765 13.7189L16.5988 14.0275C16.6279 14.1032 16.5988 14.1265 16.5319 14.0828L16.2232 13.879C16.1563 13.8353 16.101 13.7975 16.101 13.7975C16.101 13.7975 16.0456 13.8353 15.9787 13.879L15.6701 14.0828C15.6031 14.1265 15.574 14.1032 15.6031 14.0275L15.7254 13.7189C15.7545 13.6432 15.7807 13.582 15.7836 13.582C15.7836 13.582 15.7254 13.5471 15.6584 13.5063L15.3411 13.3171C15.2712 13.2763 15.2828 13.2414 15.3614 13.2414H15.7545C15.8331 13.2414 15.9204 13.1803 15.9437 13.1016L16.0398 12.7989C16.0631 12.7232 16.1068 12.7232 16.133 12.7989L16.2436 13.1075C16.2698 13.1832 16.2931 13.2443 16.2931 13.2472C16.2931 13.2472 16.3601 13.2472 16.4387 13.2472H16.8376C16.9162 13.2472 16.9278 13.2822 16.8579 13.3229L16.5406 13.5122C16.4707 13.5529 16.4154 13.5879 16.4154 13.5879L16.4212 13.582Z" fill="white"/>
<path d="M16.4212 1.5431C16.4212 1.5431 16.4474 1.60715 16.4765 1.67994L16.5988 1.98564C16.6279 2.06134 16.5988 2.08463 16.5319 2.04096L16.2232 1.84007C16.1563 1.7964 16.101 1.75855 16.101 1.75855C16.101 1.75855 16.0456 1.7964 15.9787 1.84007L15.6701 2.04096C15.6031 2.08463 15.5711 2.05843 15.6031 1.98564L15.7254 1.67994C15.7545 1.60424 15.7807 1.5431 15.7836 1.5431V1.54019C15.7836 1.54019 15.7254 1.50525 15.6584 1.46449L15.3411 1.27524C15.2712 1.23448 15.2828 1.19954 15.3614 1.19954H15.7545C15.8331 1.19954 15.9204 1.1384 15.9437 1.05979L16.0398 0.757C16.0631 0.681301 16.1068 0.681301 16.133 0.757L16.2436 1.06562C16.2698 1.14131 16.2931 1.20245 16.2931 1.20537C16.2931 1.20537 16.3601 1.20537 16.4387 1.20537H16.8376C16.9162 1.20537 16.9278 1.2403 16.8579 1.28106L16.5406 1.47031C16.4707 1.51107 16.4154 1.54601 16.4154 1.54601C16.4154 1.54601 16.4154 1.54601 16.4154 1.54892L16.4212 1.5431Z" fill="white"/>
<path d="M12.7542 4.54189C12.7542 4.54189 12.7834 4.60594 12.8125 4.67873L12.9348 4.98443C12.9639 5.06013 12.9348 5.08342 12.8678 5.03975L12.5592 4.83886C12.4922 4.79519 12.4369 4.75734 12.4369 4.75734C12.4369 4.75734 12.3816 4.79519 12.3146 4.83886L12.0089 5.03975C11.9419 5.08342 11.9128 5.06013 11.9419 4.98443L12.0642 4.67873C12.0933 4.60303 12.1195 4.54189 12.1195 4.54189V4.53898C12.1195 4.53898 12.0613 4.50404 11.9943 4.46328L11.677 4.27403C11.6071 4.23327 11.6188 4.19833 11.6974 4.19833H12.0875C12.1661 4.19833 12.2535 4.13719 12.2768 4.05858L12.3757 3.75288C12.402 3.67718 12.4427 3.67718 12.4689 3.75288L12.5796 4.0615C12.6058 4.13719 12.629 4.19833 12.629 4.20125C12.629 4.20125 12.696 4.20125 12.7775 4.20125H13.1735C13.2521 4.20125 13.2637 4.23618 13.1939 4.27694L12.8765 4.46619C12.8066 4.50695 12.7513 4.54189 12.7513 4.54189C12.7513 4.54189 12.7513 4.54189 12.7513 4.5448L12.7542 4.54189Z" fill="white"/>
<path d="M12.7542 7.55236C12.7542 7.55236 12.7834 7.61641 12.8125 7.6892L12.9348 7.9949C12.9639 8.06769 12.9348 8.09389 12.8678 8.05022L12.5592 7.84642C12.4922 7.80275 12.4369 7.76781 12.4369 7.76781C12.4369 7.76781 12.3816 7.80275 12.3146 7.84933L12.0089 8.05313C11.9419 8.0968 11.9128 8.07351 11.9419 7.99781L12.0642 7.69211C12.0933 7.61641 12.1195 7.55527 12.1195 7.55527V7.55236C12.1195 7.55236 12.0613 7.51742 11.9943 7.47666L11.677 7.28742C11.6071 7.24665 11.6188 7.21172 11.6974 7.21172H12.0875C12.1661 7.21172 12.2535 7.15058 12.2768 7.07197L12.3757 6.76626C12.402 6.69056 12.4427 6.69056 12.4689 6.76626L12.5796 7.07488C12.6058 7.15058 12.629 7.21172 12.632 7.21172H13.1764C13.255 7.21172 13.2667 7.24665 13.1968 7.28742L12.8794 7.47666C12.8096 7.51742 12.7542 7.55236 12.7542 7.55236C12.7542 7.55236 12.7542 7.55236 12.7542 7.55527V7.55236Z" fill="white"/>
<path d="M12.7533 10.5656C12.7533 10.5656 12.7824 10.6267 12.8115 10.7024L12.9367 11.011C12.9658 11.0867 12.9367 11.11 12.8697 11.0663L12.5611 10.8625C12.4942 10.8189 12.4388 10.781 12.4388 10.781C12.4388 10.781 12.3835 10.8189 12.3166 10.8625L12.0109 11.0663C11.9439 11.11 11.9148 11.0867 11.9439 11.011L12.0662 10.7024C12.0953 10.6267 12.1215 10.5656 12.1215 10.5656C12.1215 10.5656 12.0633 10.5306 11.9963 10.4899L11.6789 10.2977C11.6091 10.2569 11.6207 10.222 11.6993 10.222H12.0895C12.1681 10.222 12.2554 10.1609 12.2787 10.0852L12.3777 9.77946C12.4039 9.70376 12.4447 9.70376 12.4709 9.77946L12.5815 10.0852C12.6077 10.1609 12.631 10.222 12.631 10.2249C12.631 10.2249 12.698 10.2249 12.7795 10.2249H13.1754C13.2541 10.2249 13.2657 10.2569 13.1958 10.2977L12.8785 10.4899C12.8086 10.5306 12.7533 10.5656 12.7533 10.5656Z" fill="white"/>
<path d="M12.7533 13.5822C12.7533 13.5822 12.7824 13.6433 12.8115 13.719L12.9367 14.0276C12.9658 14.1033 12.9367 14.1266 12.8697 14.0829L12.5611 13.8791C12.4942 13.8355 12.4388 13.7976 12.4388 13.7976C12.4388 13.7976 12.3835 13.8355 12.3166 13.8791L12.0109 14.0829C11.9439 14.1266 11.9148 14.1033 11.9439 14.0276L12.0662 13.719C12.0953 13.6433 12.1215 13.5822 12.1215 13.5822C12.1215 13.5822 12.0633 13.5472 11.9963 13.5065L11.6789 13.3172C11.6091 13.2765 11.6207 13.2415 11.6993 13.2415H12.0895C12.1681 13.2415 12.2554 13.1804 12.2787 13.1018L12.3777 12.7961C12.4039 12.7204 12.4447 12.7204 12.4709 12.7961L12.5815 13.1047C12.6077 13.1804 12.631 13.2415 12.631 13.2444C12.631 13.2444 12.698 13.2444 12.7795 13.2444H13.1754C13.2541 13.2444 13.2657 13.2794 13.1958 13.3201L12.8785 13.5094C12.8086 13.5501 12.7533 13.5851 12.7533 13.5851V13.5822Z" fill="white"/>
<path d="M12.7542 1.54308C12.7542 1.54308 12.7834 1.60713 12.8125 1.67992L12.9348 1.98562C12.9639 2.06132 12.9348 2.08461 12.8678 2.04094L12.5592 1.84005C12.4922 1.79638 12.4369 1.75853 12.4369 1.75853C12.4369 1.75853 12.3816 1.79638 12.3146 1.84005L12.0089 2.04094C11.9419 2.08461 11.9128 2.06132 11.9419 1.98562L12.0642 1.67992C12.0933 1.60422 12.1195 1.54308 12.1195 1.54308V1.54017C12.1195 1.54017 12.0613 1.50523 11.9943 1.46447L11.677 1.27522C11.6071 1.23446 11.6188 1.19953 11.6974 1.19953H12.0875C12.1661 1.19953 12.2535 1.13838 12.2768 1.05977L12.3757 0.75407C12.402 0.678372 12.4427 0.678372 12.4689 0.75407L12.5796 1.06269C12.6058 1.13838 12.629 1.19953 12.629 1.20244C12.629 1.20244 12.696 1.20244 12.7775 1.20244H13.1735C13.2521 1.20244 13.2637 1.23737 13.1939 1.27813L12.8765 1.46738C12.8066 1.50814 12.7513 1.54308 12.7513 1.54308C12.7513 1.54308 12.7513 1.54308 12.7513 1.54599L12.7542 1.54308Z" fill="white"/>
<path d="M9.17321 4.54191C9.17321 4.54191 9.19941 4.60596 9.23143 4.67875L9.35372 4.98445C9.38283 5.06015 9.35372 5.08344 9.28675 5.03977L8.98105 4.83888C8.91408 4.79521 8.85877 4.75736 8.85877 4.75736C8.85877 4.75736 8.80345 4.79521 8.73648 4.83888L8.42787 5.03977C8.3609 5.08344 8.33179 5.05724 8.3609 4.98445L8.48319 4.67875C8.5123 4.60305 8.5385 4.54191 8.5385 4.54191V4.539C8.5385 4.539 8.48027 4.50406 8.41331 4.4633L8.09887 4.27405C8.029 4.23329 8.04064 4.19835 8.11925 4.19835H8.50939C8.588 4.19835 8.67534 4.13721 8.69863 4.0586L8.79471 3.75581C8.81801 3.68011 8.86168 3.68011 8.88788 3.75581L9.00143 4.06443C9.02763 4.14012 9.05092 4.20126 9.05092 4.20126C9.05092 4.20126 9.11789 4.20126 9.1965 4.20126H9.59537C9.67398 4.20126 9.68562 4.2362 9.61575 4.27696L9.29549 4.46621C9.22561 4.50697 9.17029 4.54191 9.17029 4.54191C9.17029 4.54191 9.17029 4.54191 9.17029 4.54482L9.17321 4.54191Z" fill="white"/>
<path d="M9.17321 7.55238C9.17321 7.55238 9.19941 7.61643 9.23143 7.68922L9.35372 7.99492C9.38283 8.07062 9.35372 8.09391 9.28675 8.05024L8.98105 7.84935C8.91408 7.80568 8.85877 7.76783 8.85877 7.76783C8.85877 7.76783 8.80345 7.80276 8.73648 7.84935L8.42787 8.05315C8.3609 8.09682 8.33179 8.07353 8.3609 7.99783L8.48319 7.69213C8.5123 7.61643 8.5385 7.55529 8.5385 7.55529V7.55238C8.5385 7.55238 8.48027 7.51744 8.41331 7.47668L8.09887 7.28743C8.029 7.24667 8.04064 7.21174 8.11925 7.21174H8.50939C8.588 7.21174 8.67534 7.15059 8.69863 7.07198L8.79471 6.76919C8.81801 6.69349 8.86168 6.69349 8.88788 6.76919L9.00143 7.07781C9.02763 7.15351 9.11789 7.21465 9.1965 7.21465H9.59537C9.67398 7.21465 9.68562 7.24958 9.61575 7.29035L9.29549 7.47959C9.22561 7.52035 9.17029 7.55529 9.17029 7.55529C9.17029 7.55529 9.17029 7.55529 9.17029 7.5582L9.17321 7.55238Z" fill="white"/>
<path d="M9.17321 10.5657C9.17321 10.5657 9.19941 10.6269 9.23143 10.7026L9.35372 11.0112C9.38283 11.0869 9.35372 11.1102 9.28675 11.0665L8.98105 10.8656C8.91408 10.822 8.85877 10.7841 8.85877 10.7841C8.85877 10.7841 8.80345 10.822 8.73648 10.8656L8.42787 11.0694C8.3609 11.1131 8.33179 11.0898 8.3609 11.0141L8.48319 10.7055C8.5123 10.6298 8.5385 10.5687 8.5385 10.5687C8.5385 10.5687 8.48027 10.5337 8.41331 10.493L8.09887 10.3008C8.029 10.26 8.04064 10.2251 8.11925 10.2251H8.50939C8.588 10.2251 8.67534 10.164 8.69863 10.0883L8.79471 9.78547C8.81801 9.70977 8.86168 9.70686 8.88788 9.78547L8.99852 10.0912C9.02472 10.1669 9.04801 10.228 9.04801 10.228C9.04801 10.228 9.11498 10.228 9.19359 10.228H9.59246C9.67107 10.228 9.68271 10.26 9.61284 10.3008L9.29258 10.493C9.2227 10.5337 9.16738 10.5687 9.16738 10.5687L9.17321 10.5657Z" fill="white"/>
<path d="M9.17321 13.582C9.17321 13.582 9.19941 13.6432 9.23143 13.7189L9.35372 14.0275C9.38283 14.1032 9.35372 14.1265 9.28675 14.0828L8.98105 13.8819C8.91408 13.8383 8.85877 13.8004 8.85877 13.8004C8.85877 13.8004 8.80345 13.8383 8.73648 13.8819L8.42787 14.0857C8.3609 14.1294 8.33179 14.1061 8.3609 14.0304L8.48319 13.7218C8.5123 13.6461 8.5385 13.585 8.5385 13.585C8.5385 13.585 8.48027 13.55 8.41331 13.5093L8.09887 13.32C8.029 13.2793 8.04064 13.2443 8.11925 13.2443H8.50939C8.588 13.2443 8.67534 13.1832 8.69863 13.1046L8.79471 12.8018C8.81801 12.7261 8.86168 12.7261 8.88788 12.8018L9.00143 13.1104C9.02763 13.1861 9.05092 13.2472 9.05092 13.2472C9.05092 13.2472 9.11789 13.2472 9.1965 13.2472H9.59537C9.67398 13.2472 9.68562 13.2822 9.61575 13.3229L9.29549 13.5122C9.22561 13.5529 9.17029 13.5879 9.17029 13.5879L9.17321 13.582Z" fill="white"/>
<path d="M9.17321 1.5431C9.17321 1.5431 9.19941 1.60715 9.23143 1.67994L9.35372 1.98564C9.38283 2.06134 9.35372 2.08463 9.28675 2.04096L8.98105 1.84007C8.91408 1.7964 8.85877 1.75855 8.85877 1.75855C8.85877 1.75855 8.80345 1.7964 8.73648 1.84007L8.42787 2.04096C8.3609 2.08463 8.33179 2.05843 8.3609 1.98564L8.48319 1.67994C8.5123 1.60424 8.5385 1.5431 8.5385 1.5431V1.54019C8.5385 1.54019 8.48027 1.50525 8.41331 1.46449L8.09887 1.27524C8.029 1.23448 8.04064 1.19954 8.11925 1.19954H8.50939C8.588 1.19954 8.67534 1.1384 8.69863 1.05979L8.79471 0.757C8.81801 0.681301 8.86168 0.681301 8.88788 0.757L9.00143 1.06562C9.02763 1.14131 9.05092 1.20245 9.05092 1.20245C9.05092 1.20245 9.11789 1.20245 9.1965 1.20245H9.59537C9.67398 1.20245 9.68562 1.23739 9.61575 1.27815L9.29549 1.4674C9.22561 1.50816 9.17029 1.5431 9.17029 1.5431C9.17029 1.5431 9.17029 1.5431 9.17029 1.54601L9.17321 1.5431Z" fill="white"/>
<path d="M5.6693 4.54189C5.6693 4.54189 5.69841 4.60594 5.72753 4.67873L5.84981 4.98443C5.87892 5.06013 5.84981 5.08342 5.78285 5.03975L5.47423 4.83886C5.40727 4.79519 5.35195 4.75734 5.35195 4.75734C5.35195 4.75734 5.29663 4.79519 5.22967 4.83886L4.92396 5.03975C4.857 5.08342 4.82788 5.06013 4.857 4.98443L4.97928 4.67873C5.00839 4.60303 5.0346 4.54189 5.03751 4.54189V4.53898C5.03751 4.53898 4.97928 4.50404 4.91232 4.46328L4.59497 4.27403C4.52509 4.23327 4.53674 4.19833 4.61535 4.19833H5.00548C5.087 4.19833 5.17144 4.13719 5.19473 4.05858L5.29372 3.75288C5.31992 3.67718 5.36068 3.67718 5.3898 3.75288L5.50043 4.0615C5.52664 4.13719 5.54993 4.19833 5.54993 4.19833C5.54993 4.19833 5.61689 4.19833 5.6955 4.19833H6.09437C6.17298 4.19833 6.18463 4.23327 6.11475 4.27403L5.79449 4.46328C5.72462 4.50404 5.6693 4.53898 5.6693 4.53898C5.6693 4.53898 5.6693 4.53898 5.6693 4.54189Z" fill="white"/>
<path d="M5.6693 7.55236C5.6693 7.55236 5.69841 7.61641 5.72753 7.6892L5.84981 7.9949C5.87892 8.0706 5.84981 8.09389 5.78285 8.05022L5.47423 7.84642C5.40727 7.80274 5.35195 7.76489 5.35195 7.76489C5.35195 7.76489 5.29663 7.79983 5.22967 7.84642L4.92396 8.05022C4.857 8.09389 4.82788 8.0706 4.857 7.9949L4.97928 7.6892C5.00839 7.6135 5.0346 7.55236 5.03751 7.55236V7.54945C5.03751 7.54945 4.97928 7.51451 4.91232 7.47375L4.59497 7.2845C4.52509 7.24374 4.53674 7.2088 4.61535 7.2088H5.00548C5.087 7.2088 5.17144 7.14766 5.19473 7.06905L5.29372 6.76335C5.31992 6.68765 5.36068 6.68765 5.3898 6.76335L5.50043 7.07196C5.52664 7.14766 5.54993 7.2088 5.54993 7.2088H6.09437C6.17298 7.2088 6.18463 7.24374 6.11475 7.2845L5.79449 7.47375C5.72462 7.51451 5.6693 7.54945 5.6693 7.54945C5.6693 7.54945 5.6693 7.54945 5.6693 7.55236Z" fill="white"/>
<path d="M5.6693 10.5657C5.6693 10.5657 5.6955 10.6269 5.72753 10.7026L5.84981 11.0112C5.87892 11.0869 5.84981 11.1102 5.78285 11.0665L5.47423 10.8627C5.40727 10.819 5.35195 10.7812 5.35195 10.7812C5.35195 10.7812 5.29663 10.819 5.22967 10.8627L4.92396 11.0665C4.857 11.1102 4.82788 11.0869 4.857 11.0112L4.97928 10.7026C5.00839 10.6269 5.0346 10.5657 5.03751 10.5657C5.03751 10.5657 4.97928 10.5308 4.91232 10.49L4.59497 10.2979C4.52509 10.2571 4.53674 10.2222 4.61535 10.2222H5.00548C5.087 10.2222 5.17144 10.161 5.19473 10.0853L5.29372 9.77964C5.31992 9.70395 5.36068 9.70395 5.3898 9.77964L5.50043 10.0853C5.52664 10.161 5.54993 10.2222 5.54993 10.2251C5.54993 10.2251 5.61689 10.2251 5.6955 10.2251H6.09437C6.17298 10.2251 6.18463 10.2571 6.11475 10.2979L5.79449 10.49C5.72462 10.5308 5.6693 10.5657 5.6693 10.5657Z" fill="white"/>
<path d="M5.6693 13.582C5.6693 13.582 5.6955 13.6432 5.72753 13.7189L5.84981 14.0275C5.87892 14.1032 5.84981 14.1265 5.78285 14.0828L5.47423 13.879C5.40727 13.8353 5.35195 13.7975 5.35195 13.7975C5.35195 13.7975 5.29663 13.8353 5.22967 13.879L4.92396 14.0828C4.857 14.1265 4.82788 14.1032 4.857 14.0275L4.97928 13.7189C5.00839 13.6432 5.0346 13.582 5.03751 13.582C5.03751 13.582 4.97928 13.5471 4.91232 13.5063L4.59497 13.3171C4.52509 13.2763 4.53674 13.2414 4.61535 13.2414H5.00548C5.087 13.2414 5.17144 13.1802 5.19473 13.1016L5.29372 12.7959C5.31992 12.7202 5.36068 12.7202 5.3898 12.7959L5.50043 13.1045C5.52664 13.1802 5.54993 13.2414 5.54993 13.2443C5.54993 13.2443 5.61689 13.2443 5.6955 13.2443H6.09437C6.17298 13.2443 6.18463 13.2792 6.11475 13.32L5.79449 13.5092C5.72462 13.55 5.6693 13.5849 5.6693 13.5849V13.582Z" fill="white"/>
<path d="M5.6693 1.54308C5.6693 1.54308 5.69841 1.60713 5.72753 1.67992L5.84981 1.98562C5.87892 2.06132 5.84981 2.08461 5.78285 2.04094L5.47423 1.84005C5.40727 1.79638 5.35195 1.75853 5.35195 1.75853C5.35195 1.75853 5.29663 1.79638 5.22967 1.84005L4.92396 2.04094C4.857 2.08461 4.82788 2.06132 4.857 1.98562L4.97928 1.67992C5.00839 1.60422 5.0346 1.54308 5.03751 1.54308V1.54017C5.03751 1.54017 4.97928 1.50523 4.91232 1.46447L4.59497 1.27522C4.52509 1.23446 4.53674 1.19953 4.61535 1.19953H5.00548C5.087 1.19953 5.17144 1.13838 5.19473 1.05977L5.29372 0.75407C5.31992 0.678372 5.36068 0.678372 5.3898 0.75407L5.50043 1.06269C5.52664 1.13838 5.54993 1.19953 5.54993 1.20244C5.54993 1.20244 5.61689 1.20244 5.6955 1.20244H6.09437C6.17298 1.20244 6.18463 1.23737 6.11475 1.27813L5.79449 1.46738C5.72462 1.50814 5.6693 1.54308 5.6693 1.54308C5.6693 1.54308 5.6693 1.54308 5.6693 1.54599V1.54308Z" fill="white"/>
<path d="M2.1019 4.54189C2.1019 4.54189 2.13101 4.60594 2.16013 4.67873L2.28241 4.98444C2.31152 5.06013 2.28241 5.08343 2.21545 5.03975L1.90974 4.83886C1.84278 4.79519 1.78746 4.75734 1.78746 4.75734C1.78746 4.75734 1.73214 4.79519 1.66518 4.83886L1.35656 5.03975C1.2896 5.08343 1.26048 5.05722 1.2896 4.98444L1.41188 4.67873C1.44099 4.60303 1.4672 4.54189 1.47011 4.54189V4.53898C1.47011 4.53898 1.41188 4.50695 1.34491 4.46328L1.02465 4.27404C0.954777 4.23328 0.966423 4.19834 1.04503 4.19834H1.43808C1.5196 4.19834 1.60404 4.1372 1.62733 4.05859L1.72341 3.75579C1.7467 3.6801 1.79037 3.6801 1.81657 3.75579L1.93012 4.06441C1.95632 4.14011 1.97962 4.20125 1.97962 4.20125C1.97962 4.20125 2.04658 4.20125 2.12519 4.20125H2.52406C2.60267 4.20125 2.61432 4.23619 2.54444 4.27695L2.22709 4.46619C2.15722 4.50695 2.1019 4.54189 2.1019 4.54189C2.1019 4.54189 2.1019 4.54189 2.1019 4.5448V4.54189Z" fill="white"/>
<path d="M2.1019 7.55236C2.1019 7.55236 2.13101 7.61641 2.16013 7.6892L2.28241 7.9949C2.31152 8.0706 2.28241 8.09389 2.21545 8.05022L1.90974 7.84642C1.84278 7.80275 1.78746 7.7649 1.78746 7.7649C1.78746 7.7649 1.73214 7.79983 1.66518 7.84642L1.35656 8.05022C1.2896 8.09389 1.26048 8.0706 1.2896 7.9949L1.41188 7.6892C1.44099 7.61641 1.4672 7.55236 1.47011 7.55236V7.54945C1.47011 7.54945 1.41188 7.51742 1.34491 7.47375L1.02465 7.2845C0.954777 7.24374 0.966423 7.20881 1.04503 7.20881H1.43808C1.5196 7.20881 1.60404 7.14766 1.62733 7.06906L1.72341 6.76626C1.7467 6.69056 1.79037 6.69056 1.81657 6.76626L1.93012 7.07488C1.95632 7.15058 2.04658 7.21172 2.12519 7.21172H2.52406C2.60267 7.21172 2.61432 7.24665 2.54444 7.28742L2.22709 7.47666C2.15722 7.51742 2.1019 7.55236 2.1019 7.55236C2.1019 7.55236 2.1019 7.55236 2.1019 7.55527V7.55236Z" fill="white"/>
<path d="M2.1019 10.5657C2.1019 10.5657 2.1281 10.6269 2.16013 10.7026L2.28241 11.0112C2.31152 11.0869 2.28241 11.1102 2.21545 11.0665L1.90974 10.8627C1.84278 10.819 1.78746 10.7812 1.78746 10.7812C1.78746 10.7812 1.73214 10.819 1.66518 10.8627L1.35656 11.0665C1.2896 11.1102 1.26048 11.0869 1.2896 11.0112L1.41479 10.7026C1.4439 10.6269 1.47011 10.5657 1.47011 10.5657C1.47011 10.5657 1.41188 10.5308 1.34491 10.49L1.02465 10.2979C0.954777 10.2571 0.966423 10.2222 1.04503 10.2251H1.43808C1.51669 10.2251 1.60404 10.1639 1.62733 10.0882L1.72341 9.78546C1.7467 9.70976 1.79037 9.70685 1.81657 9.78546L1.92721 10.0912C1.95341 10.1669 1.9767 10.228 1.9767 10.228C1.9767 10.228 2.04367 10.228 2.12228 10.228H2.52115C2.59976 10.228 2.61141 10.26 2.54153 10.3008L2.22418 10.4929C2.1543 10.5337 2.09899 10.5686 2.09899 10.5686L2.1019 10.5657Z" fill="white"/>
<path d="M2.1019 13.582C2.1019 13.582 2.1281 13.6432 2.16013 13.7189L2.28241 14.0275C2.31152 14.1032 2.28241 14.1265 2.21545 14.0828L1.90974 13.879C1.84278 13.8353 1.78746 13.7975 1.78746 13.7975C1.78746 13.7975 1.73214 13.8353 1.66518 13.879L1.35656 14.0828C1.2896 14.1265 1.26048 14.1032 1.2896 14.0275L1.41479 13.7189C1.4439 13.6432 1.47011 13.582 1.47011 13.582C1.47011 13.582 1.41188 13.55 1.34491 13.5063L1.02465 13.3171C0.954777 13.2763 0.966423 13.2414 1.04503 13.2414H1.43808C1.5196 13.2414 1.60404 13.1802 1.62733 13.1016L1.72341 12.7988C1.7467 12.7231 1.79037 12.7231 1.81657 12.7988L1.93012 13.1075C1.95632 13.1832 1.97962 13.2443 1.97962 13.2443C1.97962 13.2443 2.04658 13.2443 2.12519 13.2443H2.52406C2.60267 13.2443 2.61432 13.2792 2.54444 13.32L2.22709 13.5092C2.15722 13.55 2.1019 13.5849 2.1019 13.5849V13.582Z" fill="white"/>
<path d="M2.1019 1.54308C2.1019 1.54308 2.13101 1.60713 2.16013 1.67992L2.28241 1.98563C2.31152 2.06132 2.28241 2.08462 2.21545 2.04094L1.90974 1.84005C1.84278 1.79638 1.78746 1.75853 1.78746 1.75853C1.78746 1.75853 1.73214 1.79638 1.66518 1.84005L1.35656 2.04094C1.2896 2.08462 1.26048 2.05841 1.2896 1.98563L1.41188 1.67992C1.44099 1.60422 1.4672 1.54308 1.47011 1.54308V1.54017C1.47011 1.54017 1.41188 1.50523 1.34491 1.46447L1.02465 1.27523C0.954777 1.23447 0.966423 1.19953 1.04503 1.19953H1.43808C1.5196 1.19953 1.60404 1.13839 1.62733 1.05978L1.72341 0.756984C1.7467 0.681286 1.79037 0.681286 1.81657 0.756984L1.93012 1.0656C1.95632 1.1413 1.97962 1.20244 1.97962 1.20244C1.97962 1.20244 2.04658 1.20244 2.12519 1.20244H2.52406C2.60267 1.20244 2.61432 1.23738 2.54444 1.27814L2.22709 1.46738C2.15722 1.50814 2.1019 1.54308 2.1019 1.54308C2.1019 1.54308 2.1019 1.54308 2.1019 1.54599V1.54308Z" fill="white"/>
</svg>
