<svg viewBox="0 0 32 32" fill="none" xmlns="http://www.w3.org/2000/svg">
<path d="M46.094 0H-13.8491C-13.9324 0 -14 0.0675733 -14 0.150929V31.8491C-14 31.9324 -13.9324 32 -13.8491 32H46.094C46.1773 32 46.2449 31.9324 46.2449 31.8491V0.150929C46.2449 0.0675733 46.1773 0 46.094 0Z" fill="#509E2F"/>
<path d="M46.094 0H-13.8491C-13.9324 0 -14 0.0675733 -14 0.150929V21.1814C-14 21.2648 -13.9324 21.3323 -13.8491 21.3323H46.094C46.1773 21.3323 46.2449 21.2648 46.2449 21.1814V0.150929C46.2449 0.0675733 46.1773 0 46.094 0Z" fill="#EF3340"/>
<path d="M46.094 0H-13.8491C-13.9324 0 -14 0.0675733 -14 0.150929V10.5167C-14 10.6001 -13.9324 10.6677 -13.8491 10.6677H46.094C46.1773 10.6677 46.2449 10.6001 46.2449 10.5167V0.150929C46.2449 0.0675733 46.1773 0 46.094 0Z" fill="#00B5E2"/>
<path d="M14.6165 20.8012C17.1122 20.8012 19.1353 18.6524 19.1353 16.0017C19.1353 13.351 17.1122 11.2021 14.6165 11.2021C12.1208 11.2021 10.0977 13.351 10.0977 16.0017C10.0977 18.6524 12.1208 20.8012 14.6165 20.8012Z" fill="white"/>
<path d="M15.6177 20.0012C17.6966 20.0012 19.3819 18.2105 19.3819 16.0016C19.3819 13.7926 17.6966 12.002 15.6177 12.002C13.5388 12.002 11.8535 13.7926 11.8535 16.0016C11.8535 18.2105 13.5388 20.0012 15.6177 20.0012Z" fill="#EF3340"/>
<path d="M19.5872 13.4778C19.6143 13.3993 19.6566 13.3993 19.6838 13.4778L20.0671 14.6279C20.0943 14.7064 20.1758 14.7396 20.2513 14.7034L21.2776 14.1872C21.3531 14.151 21.3832 14.1811 21.35 14.2566L20.858 15.3554C20.8248 15.4308 20.858 15.5184 20.9365 15.5455L22.0051 15.95C22.0836 15.9802 22.0836 16.0285 22.0051 16.0557L20.9365 16.4602C20.858 16.4904 20.8218 16.5749 20.858 16.6503L21.35 17.7491C21.3832 17.8246 21.35 17.8548 21.2776 17.8185L20.2513 17.2993C20.1758 17.2631 20.0943 17.2963 20.0671 17.3748L19.6838 18.5249C19.6566 18.6034 19.6143 18.6034 19.5872 18.5249L19.2038 17.3748C19.1767 17.2963 19.0952 17.2631 19.0197 17.2993L17.9934 17.8185C17.9179 17.8548 17.8877 17.8246 17.9209 17.7491L18.413 16.6503C18.4462 16.5749 18.413 16.4873 18.3345 16.4602L17.2659 16.0557C17.1874 16.0255 17.1874 15.9772 17.2659 15.95L18.3345 15.5455C18.413 15.5154 18.4492 15.4308 18.413 15.3554L17.9209 14.2566C17.8877 14.1811 17.9209 14.1479 17.9934 14.1872L19.0197 14.7034C19.0952 14.7396 19.1767 14.7064 19.2008 14.6279L19.5842 13.4778H19.5872Z" fill="white"/>
</svg>
