<svg viewBox="0 0 22 22" xmlns="http://www.w3.org/2000/svg">
<path d="M17.6275 13.9884L15.2992 13.7226C14.74 13.6584 14.19 13.8509 13.7959 14.2451L12.1092 15.9318C9.51504 14.6118 7.38837 12.4943 6.06837 9.89094L7.7642 8.19511C8.15837 7.80094 8.35087 7.25094 8.2867 6.69178L8.02087 4.38178C7.91087 3.45594 7.1317 2.75928 6.1967 2.75928H4.61087C3.57504 2.75928 2.71337 3.62094 2.77754 4.65678C3.26337 12.4851 9.5242 18.7368 17.3434 19.2226C18.3792 19.2868 19.2409 18.4251 19.2409 17.3893V15.8034C19.25 14.8776 18.5534 14.0984 17.6275 13.9884Z" />
</svg>
