<svg viewBox="0 0 205 26" xmlns="http://www.w3.org/2000/svg">
<path fill-rule="evenodd" clip-rule="evenodd" d="M48.9206 14.264C37.087 2.23777 18.2767 -0.370582 2.56558 8.23849C17.874 -3.06577 38.1366 -2.37416 52.669 8.19736C53.853 8.89737 55.0799 9.27946 56.5203 9.40756C60.9902 9.38184 64.9001 12.9889 64.9001 17.6786C64.9001 22.2553 61.1503 25.9481 56.535 25.9481C51.9198 25.9481 48.17 22.2566 48.17 17.6786C48.17 17.4216 48.1821 17.1669 48.2058 16.9149C48.3302 14.8771 47.6475 13.04 46.0445 11.6892C47.0456 12.4988 48.0165 13.3692 48.9115 14.2837L48.9134 14.2795C48.9147 14.2767 48.916 14.274 48.9172 14.2712L48.9206 14.264ZM56.369 9.40982C55.4824 9.42053 55.0706 9.51677 54.8468 9.58771C55.3576 9.48001 55.8666 9.42191 56.369 9.40982ZM48.803 14.5313C48.5307 15.1686 48.3438 15.8466 48.2483 16.552C48.3465 15.8495 48.5351 15.1714 48.803 14.5313Z" fill="url(#paint0_linear_2_274)"/>
<path fill-rule="evenodd" clip-rule="evenodd" d="M12.4794 24.8824C12.4794 24.8819 12.4795 24.8814 12.4795 24.8808C12.4797 24.8801 12.4799 24.8794 12.4802 24.8786C22.6554 18.9735 35.0941 18.3001 46.18 22.7948C38.9931 17.9522 30.2305 15.4852 21.2565 15.8531C21.1544 15.849 20.9952 15.8486 20.7714 15.8567C19.5777 15.7334 16.9318 15.1303 15.038 12.69C15.6579 13.4912 16.1335 14.4176 16.4147 15.4208C16.1386 14.4515 15.6793 13.5164 15.0296 12.6803C10.1731 6.35891 0 9.83263 0 17.6783C0 24.0438 6.9451 27.9595 12.4794 24.8824ZM18.4307 16.0626C19.5441 15.9277 20.3007 15.8736 20.7714 15.8567C20.8178 15.8615 20.8621 15.8656 20.9041 15.869C20.0809 15.9095 19.2561 15.9739 18.4307 16.0626Z" fill="url(#paint1_linear_2_274)"/>
<path d="M90.2115 8.71546V10.168C90.2115 11.0396 89.63 11.6206 88.7577 11.6206H85.1233C82.9063 11.6206 81.2345 13.509 81.2345 15.6878V24.0401C81.2345 24.8754 80.653 25.4201 79.7808 25.4201H77.6001C76.7279 25.4201 76.1464 24.8754 76.1464 24.0401V15.8694C76.1464 10.4222 79.7444 7.26288 85.1233 7.26288H88.7577C89.63 7.26288 90.2115 7.84391 90.2115 8.71546Z" />
<path d="M108.046 18.5567H97.0337C97.6878 20.3361 99.1416 21.4255 101.395 21.4255C102.376 21.4255 103.866 21.2076 105.756 20.5903C106.592 20.2997 107.355 20.6266 107.682 21.4255L108.373 23.096C108.7 23.9312 108.337 24.6938 107.537 24.948C105.465 25.6017 103.43 25.9648 101.213 25.9648C95.4345 25.9648 91.364 22.3334 91.364 16.3415C91.364 10.5675 94.9984 6.71816 100.45 6.71816C105.865 6.71816 109.5 10.5675 109.5 15.4699V17.1041C109.5 17.9756 108.918 18.5567 108.046 18.5567ZM96.8883 14.1989H104.484C104.084 12.5285 102.631 11.2575 100.632 11.2575C98.7782 11.2575 97.4334 12.4195 96.8883 14.1989Z" />
<path d="M128.565 25.4201H126.385C125.513 25.4201 124.931 24.839 124.931 23.9675V15.3247C124.931 13.1458 123.259 11.2575 121.006 11.2575C118.789 11.2575 117.117 13.1458 117.117 15.3247V23.9675C117.117 24.839 116.536 25.4201 115.663 25.4201H113.483C112.61 25.4201 112.029 24.839 112.029 23.9675V15.3247C112.029 9.87751 115.627 6.71816 121.006 6.71816C126.421 6.71816 130.019 9.87751 130.019 15.3247V23.9675C130.019 24.839 129.438 25.4201 128.565 25.4201Z" />
<path d="M143.619 21.0623C144.491 21.0623 145.073 21.6434 145.073 22.5149V23.9675C145.073 24.839 144.491 25.4201 143.619 25.4201H141.438C135.987 25.4201 132.934 22.6602 132.934 17.5762V1.34363C132.934 0.544715 133.515 0 134.388 0H136.568C137.44 0 138.022 0.581031 138.022 1.45258V7.26288H143.11C143.982 7.26288 144.564 7.84391 144.564 8.71546V10.168C144.564 11.0396 144.019 11.6206 143.219 11.6206H138.022V18.1935C138.022 20.0092 139.003 21.0623 140.82 21.0623H143.619Z" />
<path d="M163.13 18.5567H152.118C152.772 20.3361 154.225 21.4255 156.479 21.4255C157.46 21.4255 158.95 21.2076 160.84 20.5903C161.676 20.2997 162.439 20.6266 162.766 21.4255L163.457 23.096C163.784 23.9312 163.42 24.6938 162.621 24.948C160.549 25.6017 158.514 25.9648 156.297 25.9648C150.518 25.9648 146.448 22.3334 146.448 16.3415C146.448 10.5675 150.082 6.71816 155.534 6.71816C160.949 6.71816 164.584 10.5675 164.584 15.4699V17.1041C164.584 17.9756 164.002 18.5567 163.13 18.5567ZM151.972 14.1989H159.568C159.168 12.5285 157.714 11.2575 155.716 11.2575C153.862 11.2575 152.517 12.4195 151.972 14.1989Z" fill="url(#paint2_linear_2_274)"/>
<path d="M176.744 6.71816C178.816 6.71816 180.378 7.00868 182.377 7.77128C183.177 8.0618 183.54 8.78808 183.213 9.62331L182.523 11.2938C182.196 12.0927 181.432 12.4195 180.596 12.129C178.707 11.5117 177.725 11.2938 176.635 11.2938C173.8 11.2938 172.019 13.0732 172.019 16.1236C172.019 19.2466 173.618 21.4255 176.78 21.4255C177.762 21.4255 179.252 21.2076 181.142 20.5903C181.978 20.2997 182.741 20.6266 183.068 21.4255L183.758 23.096C184.085 23.9312 183.722 24.6938 182.922 24.948C180.851 25.6017 178.816 25.9648 176.599 25.9648C170.82 25.9648 166.749 22.3334 166.749 16.3415C166.749 10.3496 170.347 6.71816 176.744 6.71816Z" fill="url(#paint3_linear_2_274)"/>
<path d="M185.738 16.3415C185.738 10.5675 189.59 6.71816 195.369 6.71816C201.148 6.71816 205 10.5675 205 16.3415C205 22.1155 201.148 25.9648 195.369 25.9648C189.59 25.9648 185.738 22.1155 185.738 16.3415ZM191.008 16.3415C191.008 19.3919 192.752 21.4255 195.369 21.4255C197.986 21.4255 199.73 19.3919 199.73 16.3415C199.73 13.2911 197.986 11.2575 195.369 11.2575C192.752 11.2575 191.008 13.2911 191.008 16.3415Z" fill="url(#paint4_linear_2_274)"/>
<defs>
<linearGradient id="paint0_linear_2_274" x1="64.9004" y1="12.9846" x2="-0.126296" y2="9.90517" gradientUnits="userSpaceOnUse">
<stop stop-color="#5BC2BE"/>
<stop offset="1" stop-color="#3F8F8C"/>
</linearGradient>
<linearGradient id="paint1_linear_2_274" x1="64.9004" y1="12.9846" x2="-0.126296" y2="9.90517" gradientUnits="userSpaceOnUse">
<stop stop-color="#5BC2BE"/>
<stop offset="1" stop-color="#3F8F8C"/>
</linearGradient>
<linearGradient id="paint2_linear_2_274" x1="140.573" y1="0" x2="140.573" y2="25.9648" gradientUnits="userSpaceOnUse">
<stop stop-color="#6BCDC9"/>
<stop offset="1" stop-color="#439693"/>
</linearGradient>
<linearGradient id="paint3_linear_2_274" x1="140.573" y1="0" x2="140.573" y2="25.9648" gradientUnits="userSpaceOnUse">
<stop stop-color="#6BCDC9"/>
<stop offset="1" stop-color="#439693"/>
</linearGradient>
<linearGradient id="paint4_linear_2_274" x1="140.573" y1="0" x2="140.573" y2="25.9648" gradientUnits="userSpaceOnUse">
<stop stop-color="#6BCDC9"/>
<stop offset="1" stop-color="#439693"/>
</linearGradient>
</defs>
</svg>
