<svg viewBox="0 0 14 14" fill="none" xmlns="http://www.w3.org/2000/svg">
<path d="M7 1.71875C4.088 1.71875 1.71875 4.088 1.71875 7C1.71875 9.91633 4.08367 12.2812 7 12.2812C9.912 12.2812 12.2812 9.912 12.2812 7C12.2812 4.08312 9.91633 1.71875 7 1.71875ZM7 9.66608C6.36697 9.66608 5.75986 9.41461 5.31224 8.96699C4.86462 8.51937 4.61315 7.91226 4.61315 7.27923C4.61315 6.6462 4.86462 6.03909 5.31224 5.59147C5.75986 5.14385 6.36697 4.89238 7 4.89238H7.10671L6.74867 4.53488C6.68596 4.46742 6.65186 4.37827 6.65351 4.28619C6.65517 4.1941 6.69246 4.10624 6.75755 4.04109C6.82264 3.97592 6.91046 3.93854 7.00254 3.93678C7.09463 3.93502 7.18381 3.96904 7.25133 4.03167L8.26696 5.04729C8.30004 5.08025 8.32629 5.11942 8.3442 5.16255C8.36211 5.20568 8.37133 5.25192 8.37133 5.29863C8.37133 5.34533 8.36211 5.39157 8.3442 5.4347C8.32629 5.47783 8.30004 5.517 8.26696 5.54996L7.25133 6.56558C7.21833 6.59859 7.17914 6.62477 7.13602 6.64263C7.0929 6.6605 7.04668 6.66969 7 6.66969C6.95332 6.66969 6.9071 6.6605 6.86398 6.64263C6.82086 6.62477 6.78167 6.59859 6.74867 6.56558C6.71566 6.53258 6.68948 6.49339 6.67162 6.45027C6.65376 6.40715 6.64456 6.36093 6.64456 6.31425C6.64456 6.26757 6.65376 6.22135 6.67162 6.17823C6.68948 6.13511 6.71566 6.09592 6.74867 6.06292L7.20583 5.60629C7.14517 5.60358 7.07583 5.60358 7 5.60358C6.66854 5.60358 6.34451 5.70187 6.06891 5.88603C5.79331 6.07018 5.5785 6.33192 5.45165 6.63815C5.32481 6.94439 5.29162 7.28136 5.35629 7.60646C5.42095 7.93155 5.58057 8.23017 5.81495 8.46455C6.04933 8.69893 6.34795 8.85855 6.67305 8.92321C6.99814 8.98788 7.33511 8.95469 7.64135 8.82785C7.94758 8.701 8.20932 8.48619 8.39347 8.21059C8.57763 7.93499 8.67592 7.61097 8.67592 7.2795C8.67592 7.18526 8.71335 7.09488 8.77999 7.02824C8.84663 6.9616 8.93701 6.92417 9.03125 6.92417C9.12549 6.92417 9.21587 6.9616 9.28251 7.02824C9.34915 7.09488 9.38658 7.18526 9.38658 7.2795C9.38587 7.91224 9.13419 8.51886 8.68678 8.96628C8.23936 9.41369 7.63274 9.66537 7 9.66608Z" fill="#162854"/>
</svg>
