<svg viewBox="0 0 22 22" xmlns="http://www.w3.org/2000/svg"><path d="m9.50742628 4.6911125c-2.69733 0-4.873 2.2043-4.873 4.9371s2.17567 4.9371 4.873 4.9371c2.69728002 0 4.87298002-2.2043 4.87298002-4.9371s-2.1757-4.9371-4.87298002-4.9371zm0 8.1469c-1.74308 0-3.16808-1.4395-3.16808-3.2098s1.42075-3.20976 3.16808-3.20976c1.74728002 0 3.16808002 1.43946 3.16808002 3.20976s-1.425 3.2098-3.16808002 3.2098zm6.20888002-8.34885c0 .64023-.5089 1.15156-1.1366 1.15156-.6319 0-1.1366-.51562-1.1366-1.15156s.509-1.15157 1.1366-1.15157c.6277 0 1.1366.51563 1.1366 1.15157zm3.2275 1.16875c-.0721-1.54258-.4199-2.90899-1.5353-4.03477-1.1111-1.12578-2.4598-1.47812-3.9823-1.55547-1.5692-.09023-6.27258002-.09023-7.84178002 0-1.5183.07305-2.86696.42539-3.98236 1.55118-1.115403 1.12578-1.45893 2.49218-1.5352694 4.03476-.08906251 1.58984-.08906251 6.3551 0 7.9449.0720984 1.5426.4198664 2.909 1.5352694 4.0348 1.1154 1.1258 2.45981999 1.4781 3.98236 1.5555 1.5692.0902 6.27258002.0902 7.84178002 0 1.5225-.0731 2.8712-.4254 3.9823-1.5555 1.1112-1.1258 1.459-2.4922 1.5353-4.0348.0891-1.5898.0891-6.35076 0-7.9406zm-2.0272 9.6465c-.3308.8422-.9712 1.491-1.8067 1.8305-1.2511.5027-4.2199.3867-5.60248002.3867-1.38259001 0-4.35558.1117-5.60246-.3867-.83125-.3352-1.47165-.984-1.8067-1.8305-.4962-1.2676-.38169-4.2754-.38169-5.6762 0-1.40077-.11027-4.41288.38169-5.67616.33081-.84219.97121-1.49102 1.8067-1.83047 1.25112-.50274 4.21986999-.38672 5.60246-.38672 1.38258002 0 4.35558002-.11172 5.60248002.38672.8312.33516 1.4716.98398 1.8067 1.83047.4962 1.26758.3817 4.27539.3817 5.67616 0 1.4008.1145 4.4129-.3817 5.6762z" transform="translate(1.5 1.37)"/></svg>