<svg viewBox="0 0 22 22" xmlns="http://www.w3.org/2000/svg"><path d="m3.91719 17.4996h-3.628128v-11.68358h3.628128zm-1.81602-13.27733c-1.160154 0-2.10117-.96094-2.10117-2.1211 0-.55726.221373-1.0917.615419-1.485751.394051-.394046.928491-.615419 1.485751-.615419.55727 0 1.09171.221373 1.48575.615419.39405.394051.61542.928491.61542 1.485751 0 1.16016-.9414 2.1211-2.10117 2.1211zm15.39493 13.27733h-3.6203v-5.6875c0-1.3555-.0274-3.09374-1.8863-3.09374-1.8864 0-2.17544 1.47264-2.17544 2.99614v5.7851h-3.62422v-11.68358h3.47969v1.59375h.05078c.48439-.91797 1.66759-1.88672 3.43279-1.88672 3.6719 0 4.3469 2.41797 4.3469 5.55855v6.418z" transform="translate(2.25 2.25)"/></svg>