<svg viewBox="0 0 20 20" xmlns="http://www.w3.org/2000/svg">
<path d="M18.5025 8.20507C17.9259 7.78766 17.2695 7.4935 16.5742 7.34091C16.4578 7.31471 16.3513 7.256 16.2671 7.17161C16.1829 7.08721 16.1243 6.98062 16.0983 6.86424C15.7933 5.50591 15.1375 4.34257 14.1733 3.46007C13.0525 2.43341 11.5708 1.86841 10 1.86841C8.61917 1.86841 7.34333 2.30174 6.31333 3.12091C5.61544 3.67692 5.05367 4.3849 4.67083 5.19091C4.62935 5.27914 4.56781 5.35644 4.49112 5.41663C4.41443 5.47682 4.32472 5.51824 4.22917 5.53758C3.18417 5.74841 2.24083 6.19591 1.52083 6.83091C0.525 7.71007 0 8.87841 0 10.2126C0 11.5609 0.566667 12.7901 1.59333 13.6792C2.575 14.5267 3.89583 14.9934 5.3125 14.9934H9.375V9.00258L7.94167 10.4359C7.88185 10.4957 7.81054 10.5427 7.73203 10.5741C7.65353 10.6055 7.56947 10.6206 7.48495 10.6186C7.40042 10.6166 7.31718 10.5974 7.24027 10.5623C7.16336 10.5272 7.09438 10.4768 7.0375 10.4142C6.93008 10.2918 6.87366 10.1329 6.87986 9.9701C6.88606 9.80734 6.95441 9.65315 7.07083 9.53924L9.55833 7.05174C9.67552 6.9347 9.83437 6.86896 10 6.86896C10.1656 6.86896 10.3245 6.9347 10.4417 7.05174L12.93 9.53841C13.175 9.78424 13.1883 10.1867 12.945 10.4334C12.8871 10.4919 12.8182 10.5384 12.7423 10.5702C12.6664 10.602 12.5849 10.6185 12.5026 10.6187C12.4203 10.6189 12.3387 10.6029 12.2627 10.5715C12.1866 10.5402 12.1174 10.4941 12.0592 10.4359L10.625 9.00258V14.9942H15.4692C16.6933 14.9942 17.8092 14.6501 18.6108 14.0259C19.52 13.3192 20 12.3084 20 11.1026C20 9.93341 19.4817 8.93091 18.5025 8.20507Z" />
<path d="M9.375 17.5101C9.375 17.6758 9.44085 17.8348 9.55806 17.952C9.67527 18.0692 9.83424 18.1351 10 18.1351C10.1658 18.1351 10.3247 18.0692 10.4419 17.952C10.5592 17.8348 10.625 17.6758 10.625 17.5101V14.9934H9.375V17.5101Z" />
</svg>
