<svg height="192" viewBox="0 0 192 192" width="192" xmlns="http://www.w3.org/2000/svg" xmlns:xlink="http://www.w3.org/1999/xlink"><linearGradient id="a"><stop offset="0" stop-color="#5bc2be"/><stop offset="1" stop-color="#3f8f8c"/></linearGradient><linearGradient id="b" x1="100.000481%" x2="-4.318435%" xlink:href="#a" y1="50.002835%" y2="47.925271%"/><linearGradient id="c" x1="140.537895%" x2="-.273486%" xlink:href="#a" y1="46.263348%" y2="43.812922%"/><g fill="none" fill-rule="evenodd"><rect fill="#fff" height="192" rx="46" width="192"/><path d="m136.778338 99.1675063c-29.045557-29.6767574-75.215414-36.1133073-113.778338-14.8689654 37.5744974-27.8951743 87.309023-26.1885096 122.978781-.1014953 2.906126 1.7273931 5.917551 2.6702649 9.453011 2.9863733 10.971363-.0634685 20.568208 8.8375624 20.568208 20.4101911 0 11.293781-9.203879 20.40639-20.532127 20.40639-11.328003 0-20.531882-9.109401-20.531882-20.40639 0-.634191.029699-1.262707.087871-1.884559.30534-5.028617-1.370347-9.5619718-5.304908-12.8952994 2.457198 1.997825 4.840271 4.1456843 7.037048 6.4023678l.004663-.0103642c.003191-.0069095.006382-.0135722.009327-.0204817zm18.282088-11.9785105c-2.176159.0264288-3.186921.2639172-3.736238.4389737 1.253758-.265768 2.503098-.4091396 3.736238-.4389737zm-18.570737 12.6381185c-.66836 1.5726457-1.127106 3.2457257-1.361511 4.9864187.241032-1.733537.70395-3.406864 1.361511-4.9864187z" fill="url(#b)"/><path d="m46.536427 125.34828c0-.001239.0002447-.002478.0002447-.003965.0004894-.001735.0009788-.003469.0017129-.005452 24.8981724-14.634289 55.3350084-16.30314 82.4616154-5.164169-17.585961-12.001153-39.0275769-18.114985-60.9864768-17.203238-.2498333-.010161-.6393872-.011153-1.1870139.008921-2.9209203-.305567-9.3952967-1.800197-14.0293244-7.8478606 1.5168623 1.9855705 2.6806302 4.2814174 3.3687116 6.7675936-.675602-2.4021637-1.7994846-4.7195713-3.3892659-6.7916326-11.8835968-15.6659582-36.7766306-7.0572262-36.7766306 12.3862726 0 15.775273 16.9942897 25.47934 30.536427 17.85353zm14.5625141-21.857632c2.7244305-.334315 4.5757904-.468388 5.7275682-.510271.1135383.011896.2219381.022057.3247098.030483-2.0143265.100369-4.0325682.259968-6.052278.479788z" fill="url(#c)"/></g></svg>